<?xml version="1.0" encoding="UTF-8" standalone="no"?>
<!DOCTYPE svg PUBLIC "-//W3C//DTD SVG 1.1//EN" "http://www.w3.org/Graphics/SVG/1.1/DTD/svg11.dtd">
<svg width="100%" height="100%" viewBox="0 0 120 380" version="1.1" xmlns="http://www.w3.org/2000/svg" xmlns:xlink="http://www.w3.org/1999/xlink" xml:space="preserve" xmlns:serif="http://www.serif.com/" style="fill-rule:evenodd;clip-rule:evenodd;stroke-linecap:round;stroke-linejoin:round;stroke-miterlimit:1.5;">
    <g id="panel" transform="matrix(0.250181,0,0,0.250181,0.0155521,0)">
        <g transform="matrix(1.00026,0,0,1,-0.0621633,0)">
            <rect x="0" y="0" width="479.528" height="1518.9" style="fill:rgb(234,230,227);"/>
        </g>
        <g transform="matrix(1.00026,0,0,1,-0.0621633,-15.9101)">
            <path d="M0,32L479.528,32" style="fill:none;stroke:rgb(170,170,170);stroke-width:2.08px;"/>
            <g transform="matrix(1,0,0,1,0,39.1931)">
                <path d="M0,32L479.528,32" style="fill:none;stroke:rgb(170,170,170);stroke-width:2.08px;"/>
            </g>
            <g transform="matrix(1,0,0,1,0,78.3863)">
                <path d="M0,32L479.528,32" style="fill:none;stroke:rgb(170,170,170);stroke-width:2.08px;"/>
            </g>
            <g transform="matrix(1,0,0,1,0,117.579)">
                <path d="M0,32L479.528,32" style="fill:none;stroke:rgb(170,170,170);stroke-width:2.08px;"/>
            </g>
            <g transform="matrix(1,0,0,1,0,156.773)">
                <path d="M0,32L479.528,32" style="fill:none;stroke:rgb(170,170,170);stroke-width:2.08px;"/>
            </g>
        </g>
        <g transform="matrix(1,0,0,1,327.875,335.584)">
            <g transform="matrix(0.869021,0,0,0.869021,241.926,574.305)">
                <circle cx="-182" cy="1072" r="397" style="fill:none;stroke:rgb(170,170,170);stroke-width:2.4px;"/>
            </g>
            <g transform="matrix(0.994966,0,0,0.994966,264.848,439.293)">
                <circle cx="-182" cy="1072" r="397" style="fill:none;stroke:rgb(170,170,170);stroke-width:2.09px;"/>
            </g>
            <g transform="matrix(1.11083,0,0,1.11083,285.935,313.087)">
                <circle cx="-182" cy="1072" r="397" style="fill:none;stroke:rgb(170,170,170);stroke-width:1.88px;"/>
            </g>
            <g transform="matrix(1.2267,0,0,1.2267,307.023,186.88)">
                <circle cx="-182" cy="1072" r="397" style="fill:none;stroke:rgb(170,170,170);stroke-width:1.7px;"/>
            </g>
        </g>
        <g transform="matrix(1,0,0,1,2.49855,-54.9768)">
            <g transform="matrix(1,0,0,1,-1,8)">
                <g transform="matrix(1,0,0,1,6.20594,-24.898)">
                    <circle cx="187.171" cy="215.865" r="92.774" style="fill:rgb(147,72,103);"/>
                </g>
                <g transform="matrix(1,0,0,1,98.9803,-24.898)">
                    <circle cx="187.171" cy="215.865" r="92.774" style="fill:rgb(93,128,125);"/>
                </g>
            </g>
            <g transform="matrix(1,0,0,1,0,-4)">
                <g transform="matrix(1,0,0,1,6.20594,-24.898)">
                    <circle cx="187.171" cy="215.865" r="92.774" style="fill:rgb(212,124,160);"/>
                </g>
                <g transform="matrix(1,0,0,1,98.9803,-24.898)">
                    <circle cx="187.171" cy="215.865" r="92.774" style="fill:rgb(145,180,177);"/>
                </g>
            </g>
        </g>
        <g transform="matrix(0.628644,0,0,0.628644,9.86049,623.811)">
            <g transform="matrix(1.83752,0,0,1.83752,-117.396,-704.788)">
                <g transform="matrix(50,0,0,50,78.576,1046.78)">
                    <path d="M0.146,-0.333C0.146,-0.365 0.152,-0.395 0.163,-0.423C0.173,-0.451 0.189,-0.475 0.209,-0.496C0.229,-0.517 0.253,-0.533 0.282,-0.545C0.311,-0.557 0.343,-0.563 0.378,-0.563C0.395,-0.563 0.411,-0.562 0.425,-0.56C0.438,-0.557 0.45,-0.554 0.459,-0.551C0.47,-0.548 0.48,-0.544 0.488,-0.539L0.502,-0.563C0.491,-0.568 0.48,-0.572 0.468,-0.576C0.457,-0.579 0.444,-0.582 0.429,-0.585C0.414,-0.588 0.397,-0.589 0.378,-0.589C0.344,-0.589 0.312,-0.583 0.281,-0.571C0.25,-0.559 0.222,-0.542 0.199,-0.52C0.175,-0.497 0.156,-0.47 0.142,-0.439C0.127,-0.407 0.12,-0.372 0.12,-0.333C0.12,-0.294 0.127,-0.258 0.141,-0.227C0.154,-0.196 0.173,-0.169 0.197,-0.147C0.221,-0.124 0.249,-0.107 0.281,-0.095C0.313,-0.083 0.347,-0.077 0.383,-0.077C0.403,-0.077 0.421,-0.079 0.437,-0.082C0.453,-0.085 0.467,-0.089 0.478,-0.093C0.491,-0.098 0.502,-0.103 0.512,-0.109L0.498,-0.133C0.489,-0.127 0.479,-0.122 0.468,-0.118C0.458,-0.114 0.446,-0.111 0.432,-0.108C0.418,-0.105 0.402,-0.103 0.383,-0.103C0.346,-0.103 0.313,-0.109 0.284,-0.121C0.255,-0.133 0.23,-0.149 0.21,-0.17C0.189,-0.191 0.173,-0.215 0.163,-0.243C0.152,-0.271 0.146,-0.301 0.146,-0.333ZM0.02,-0.333C0.02,-0.386 0.029,-0.435 0.048,-0.478C0.067,-0.521 0.092,-0.557 0.124,-0.588C0.156,-0.619 0.193,-0.642 0.236,-0.659C0.279,-0.675 0.324,-0.683 0.372,-0.683C0.41,-0.683 0.444,-0.679 0.474,-0.672C0.503,-0.665 0.529,-0.656 0.55,-0.647C0.575,-0.636 0.596,-0.625 0.614,-0.612L0.509,-0.427C0.498,-0.435 0.487,-0.443 0.474,-0.45C0.463,-0.455 0.449,-0.46 0.434,-0.466C0.418,-0.471 0.4,-0.473 0.38,-0.473C0.359,-0.473 0.34,-0.469 0.323,-0.462C0.306,-0.455 0.291,-0.445 0.278,-0.432C0.265,-0.419 0.254,-0.405 0.247,-0.388C0.24,-0.371 0.236,-0.352 0.236,-0.333C0.236,-0.314 0.24,-0.296 0.248,-0.279C0.255,-0.262 0.266,-0.247 0.279,-0.234C0.292,-0.221 0.308,-0.211 0.326,-0.204C0.344,-0.197 0.364,-0.193 0.385,-0.193C0.406,-0.193 0.425,-0.196 0.442,-0.201C0.459,-0.206 0.473,-0.212 0.484,-0.219C0.497,-0.226 0.509,-0.235 0.519,-0.245L0.624,-0.06C0.606,-0.045 0.585,-0.032 0.56,-0.021C0.539,-0.012 0.513,-0.003 0.483,0.005C0.453,0.013 0.419,0.017 0.38,0.017C0.328,0.017 0.28,0.009 0.236,-0.009C0.192,-0.026 0.154,-0.049 0.122,-0.08C0.09,-0.111 0.065,-0.148 0.047,-0.191C0.029,-0.234 0.02,-0.281 0.02,-0.333Z" style="fill:rgb(170,170,170);fill-rule:nonzero;"/>
                </g>
                <g transform="matrix(50,0,0,50,109.276,1046.78)">
                    <path d="M0.02,-0.333C0.02,-0.381 0.029,-0.426 0.048,-0.469C0.066,-0.512 0.091,-0.549 0.123,-0.581C0.154,-0.612 0.191,-0.637 0.234,-0.656C0.277,-0.674 0.322,-0.683 0.37,-0.683C0.418,-0.683 0.463,-0.674 0.506,-0.656C0.549,-0.637 0.586,-0.612 0.618,-0.581C0.649,-0.549 0.674,-0.512 0.693,-0.469C0.711,-0.426 0.72,-0.381 0.72,-0.333C0.72,-0.285 0.711,-0.24 0.693,-0.197C0.674,-0.154 0.649,-0.117 0.618,-0.086C0.586,-0.054 0.549,-0.029 0.506,-0.011C0.463,0.008 0.418,0.017 0.37,0.017C0.322,0.017 0.277,0.008 0.234,-0.011C0.191,-0.029 0.154,-0.054 0.123,-0.086C0.091,-0.117 0.066,-0.154 0.048,-0.197C0.029,-0.24 0.02,-0.285 0.02,-0.333ZM0.114,-0.333C0.114,-0.298 0.121,-0.265 0.134,-0.234C0.147,-0.203 0.166,-0.175 0.189,-0.152C0.212,-0.129 0.24,-0.11 0.271,-0.097C0.302,-0.084 0.335,-0.077 0.37,-0.077C0.405,-0.077 0.439,-0.084 0.47,-0.097C0.501,-0.11 0.528,-0.129 0.551,-0.152C0.574,-0.175 0.593,-0.203 0.606,-0.234C0.619,-0.265 0.626,-0.298 0.626,-0.333C0.626,-0.368 0.619,-0.401 0.606,-0.433C0.593,-0.464 0.574,-0.491 0.551,-0.514C0.528,-0.537 0.501,-0.556 0.47,-0.569C0.439,-0.582 0.405,-0.589 0.37,-0.589C0.335,-0.589 0.302,-0.582 0.271,-0.569C0.24,-0.556 0.212,-0.537 0.189,-0.514C0.166,-0.491 0.147,-0.464 0.134,-0.433C0.121,-0.401 0.114,-0.368 0.114,-0.333ZM0.23,-0.333C0.23,-0.314 0.234,-0.296 0.241,-0.279C0.248,-0.262 0.258,-0.247 0.271,-0.234C0.284,-0.221 0.299,-0.211 0.316,-0.204C0.333,-0.197 0.351,-0.193 0.37,-0.193C0.389,-0.193 0.408,-0.197 0.425,-0.204C0.442,-0.211 0.456,-0.221 0.469,-0.234C0.482,-0.247 0.492,-0.262 0.499,-0.279C0.506,-0.296 0.51,-0.314 0.51,-0.333C0.51,-0.352 0.506,-0.371 0.499,-0.388C0.492,-0.405 0.482,-0.419 0.469,-0.432C0.456,-0.445 0.442,-0.455 0.425,-0.462C0.408,-0.469 0.389,-0.473 0.37,-0.473C0.351,-0.473 0.333,-0.469 0.316,-0.462C0.299,-0.455 0.284,-0.445 0.271,-0.432C0.258,-0.419 0.248,-0.405 0.241,-0.388C0.234,-0.371 0.23,-0.352 0.23,-0.333ZM0.37,-0.103C0.338,-0.103 0.308,-0.109 0.281,-0.121C0.253,-0.133 0.229,-0.15 0.208,-0.171C0.187,-0.192 0.17,-0.216 0.158,-0.244C0.146,-0.271 0.14,-0.301 0.14,-0.333C0.14,-0.365 0.146,-0.395 0.158,-0.423C0.17,-0.45 0.187,-0.474 0.208,-0.496C0.229,-0.517 0.253,-0.533 0.281,-0.545C0.308,-0.557 0.338,-0.563 0.37,-0.563C0.402,-0.563 0.432,-0.557 0.46,-0.545C0.487,-0.533 0.511,-0.517 0.533,-0.496C0.554,-0.474 0.57,-0.45 0.582,-0.423C0.594,-0.395 0.6,-0.365 0.6,-0.333C0.6,-0.301 0.594,-0.271 0.582,-0.244C0.57,-0.216 0.554,-0.192 0.533,-0.171C0.511,-0.15 0.487,-0.133 0.46,-0.121C0.432,-0.109 0.402,-0.103 0.37,-0.103Z" style="fill:rgb(170,170,170);fill-rule:nonzero;"/>
                </g>
                <g transform="matrix(50,0,0,50,146.276,1046.78)">
                    <path d="M0.035,-0.667L0.257,-0.667L0.257,-0.175L0.441,-0.175L0.441,0L0.035,0L0.035,-0.667ZM0.385,-0.08L0.385,-0.104L0.161,-0.104L0.161,-0.587L0.135,-0.587L0.135,-0.08L0.385,-0.08Z" style="fill:rgb(170,170,170);fill-rule:nonzero;"/>
                </g>
                <g transform="matrix(50,0,0,50,168.326,1046.78)">
                    <path d="M0.035,-0.667L0.257,-0.667L0.257,-0.175L0.441,-0.175L0.441,0L0.035,0L0.035,-0.667ZM0.385,-0.08L0.385,-0.104L0.161,-0.104L0.161,-0.587L0.135,-0.587L0.135,-0.08L0.385,-0.08Z" style="fill:rgb(170,170,170);fill-rule:nonzero;"/>
                </g>
                <g transform="matrix(50,0,0,50,190.376,1046.78)">
                    <path d="M0.035,-0.667L0.261,-0.667L0.261,0L0.035,0L0.035,-0.667ZM0.161,-0.08L0.161,-0.587L0.135,-0.587L0.135,-0.08L0.161,-0.08Z" style="fill:rgb(170,170,170);fill-rule:nonzero;"/>
                </g>
                <g transform="matrix(50,0,0,50,205.176,1046.78)">
                    <path d="M0.035,0L0.035,-0.667L0.22,-0.667C0.283,-0.667 0.339,-0.66 0.388,-0.646C0.437,-0.632 0.478,-0.611 0.512,-0.583C0.545,-0.555 0.571,-0.52 0.589,-0.479C0.606,-0.437 0.615,-0.389 0.615,-0.334C0.615,-0.279 0.606,-0.231 0.589,-0.19C0.571,-0.148 0.545,-0.113 0.512,-0.085C0.478,-0.057 0.437,-0.036 0.388,-0.022C0.339,-0.007 0.283,0 0.22,0L0.035,0ZM0.161,-0.104L0.161,-0.563L0.22,-0.563C0.305,-0.563 0.371,-0.544 0.418,-0.506C0.464,-0.467 0.488,-0.41 0.488,-0.334C0.488,-0.258 0.464,-0.201 0.418,-0.162C0.371,-0.123 0.305,-0.104 0.22,-0.104L0.161,-0.104ZM0.135,-0.08L0.22,-0.08C0.317,-0.08 0.391,-0.102 0.441,-0.147C0.49,-0.191 0.515,-0.253 0.515,-0.334C0.515,-0.415 0.49,-0.477 0.441,-0.521C0.391,-0.565 0.317,-0.587 0.22,-0.587L0.135,-0.587L0.135,-0.08ZM0.248,-0.19C0.298,-0.19 0.337,-0.202 0.364,-0.226C0.391,-0.249 0.405,-0.285 0.405,-0.334C0.405,-0.383 0.391,-0.419 0.364,-0.442C0.337,-0.465 0.298,-0.477 0.248,-0.477L0.248,-0.19Z" style="fill:rgb(170,170,170);fill-rule:nonzero;"/>
                </g>
                <g transform="matrix(50,0,0,50,236.926,1046.78)">
                    <path d="M0.035,-0.667L0.428,-0.667L0.428,-0.492L0.248,-0.492L0.248,-0.418L0.425,-0.418L0.425,-0.252L0.248,-0.252L0.248,-0.175L0.435,-0.175L0.435,0L0.035,0L0.035,-0.667ZM0.361,-0.08L0.361,-0.104L0.161,-0.104L0.161,-0.323L0.351,-0.323L0.351,-0.347L0.161,-0.347L0.161,-0.563L0.361,-0.563L0.361,-0.587L0.135,-0.587L0.135,-0.08L0.361,-0.08Z" style="fill:rgb(170,170,170);fill-rule:nonzero;"/>
                </g>
            </g>
            <g transform="matrix(0.603686,0,0,0.603686,-36.5809,624.918)">
                <g transform="matrix(241.379,0,0,241.379,100.602,1188)">
                    <path d="M0.101,-0.087C0.11,-0.085 0.12,-0.083 0.131,-0.082C0.14,-0.081 0.15,-0.08 0.161,-0.079C0.171,-0.078 0.181,-0.077 0.192,-0.077C0.211,-0.077 0.229,-0.079 0.247,-0.084C0.264,-0.088 0.28,-0.095 0.294,-0.105C0.308,-0.115 0.319,-0.128 0.328,-0.144C0.336,-0.159 0.34,-0.178 0.34,-0.201C0.34,-0.22 0.335,-0.239 0.326,-0.256C0.316,-0.273 0.304,-0.29 0.289,-0.306C0.274,-0.322 0.258,-0.337 0.241,-0.352C0.224,-0.367 0.208,-0.382 0.193,-0.397C0.178,-0.411 0.165,-0.427 0.156,-0.442C0.146,-0.456 0.141,-0.472 0.141,-0.488C0.141,-0.512 0.149,-0.531 0.164,-0.544C0.179,-0.557 0.204,-0.563 0.238,-0.563C0.243,-0.563 0.249,-0.563 0.255,-0.563C0.26,-0.562 0.266,-0.562 0.271,-0.561C0.276,-0.56 0.282,-0.56 0.287,-0.56L0.287,-0.586C0.282,-0.586 0.277,-0.586 0.272,-0.587C0.267,-0.588 0.262,-0.588 0.257,-0.589C0.251,-0.589 0.245,-0.589 0.239,-0.589C0.203,-0.589 0.173,-0.581 0.15,-0.565C0.127,-0.548 0.115,-0.523 0.115,-0.488C0.115,-0.469 0.12,-0.452 0.13,-0.436C0.139,-0.419 0.152,-0.403 0.167,-0.388C0.182,-0.372 0.198,-0.357 0.215,-0.342C0.232,-0.327 0.247,-0.313 0.263,-0.298C0.278,-0.283 0.29,-0.267 0.3,-0.251C0.309,-0.235 0.314,-0.218 0.314,-0.201C0.314,-0.169 0.303,-0.145 0.282,-0.128C0.26,-0.111 0.23,-0.103 0.192,-0.103C0.169,-0.103 0.149,-0.105 0.13,-0.108C0.12,-0.109 0.11,-0.111 0.101,-0.113L0.101,-0.087ZM0.017,-0.207C0.032,-0.202 0.047,-0.199 0.063,-0.196C0.076,-0.193 0.092,-0.19 0.109,-0.188C0.126,-0.186 0.143,-0.185 0.16,-0.185C0.191,-0.185 0.206,-0.196 0.206,-0.219C0.206,-0.228 0.201,-0.237 0.192,-0.246C0.183,-0.255 0.171,-0.265 0.157,-0.276C0.142,-0.286 0.127,-0.299 0.111,-0.312C0.094,-0.325 0.079,-0.341 0.065,-0.358C0.05,-0.375 0.038,-0.395 0.029,-0.417C0.02,-0.438 0.015,-0.463 0.015,-0.491C0.015,-0.522 0.021,-0.55 0.032,-0.574C0.043,-0.598 0.059,-0.618 0.079,-0.634C0.099,-0.65 0.123,-0.662 0.15,-0.671C0.177,-0.679 0.205,-0.683 0.236,-0.683C0.252,-0.683 0.268,-0.682 0.284,-0.681C0.3,-0.679 0.314,-0.677 0.327,-0.676C0.342,-0.674 0.356,-0.672 0.37,-0.67L0.37,-0.483L0.334,-0.487C0.327,-0.488 0.32,-0.488 0.313,-0.488C0.309,-0.488 0.304,-0.488 0.298,-0.488C0.292,-0.487 0.286,-0.486 0.281,-0.485C0.276,-0.484 0.271,-0.481 0.267,-0.478C0.263,-0.475 0.261,-0.47 0.261,-0.464C0.261,-0.459 0.266,-0.452 0.275,-0.444C0.284,-0.436 0.295,-0.427 0.308,-0.416C0.321,-0.405 0.335,-0.393 0.351,-0.379C0.366,-0.365 0.381,-0.349 0.394,-0.331C0.407,-0.313 0.418,-0.293 0.427,-0.27C0.436,-0.247 0.44,-0.222 0.44,-0.194C0.44,-0.165 0.435,-0.137 0.426,-0.112C0.417,-0.086 0.402,-0.064 0.383,-0.045C0.363,-0.025 0.338,-0.011 0.307,0.001C0.276,0.012 0.24,0.017 0.198,0.017C0.173,0.017 0.149,0.016 0.128,0.014C0.106,0.011 0.087,0.008 0.07,0.005C0.051,0.002 0.033,-0.002 0.017,-0.007L0.017,-0.207Z" style="fill:rgb(145,166,180);fill-rule:nonzero;"/>
                </g>
                <g transform="matrix(241.379,0,0,241.379,209.223,1188)">
                    <path d="M0.035,-0.667L0.248,-0.667L0.248,-0.44L0.367,-0.44L0.367,-0.667L0.581,-0.667L0.581,0L0.367,0L0.367,-0.247L0.248,-0.247L0.248,0L0.035,0L0.035,-0.667ZM0.161,-0.08L0.161,-0.333L0.455,-0.333L0.455,-0.08L0.481,-0.08L0.481,-0.587L0.455,-0.587L0.455,-0.357L0.161,-0.357L0.161,-0.587L0.135,-0.587L0.135,-0.08L0.161,-0.08Z" style="fill:rgb(145,166,180);fill-rule:nonzero;"/>
                </g>
                <g transform="matrix(241.379,0,0,241.379,357.913,1188)">
                    <path d="M0.308,0.017C0.266,0.017 0.228,0.012 0.194,0.001C0.16,-0.01 0.131,-0.026 0.107,-0.047C0.083,-0.068 0.065,-0.095 0.052,-0.128C0.039,-0.161 0.032,-0.199 0.032,-0.243L0.032,-0.667L0.245,-0.667L0.245,-0.252C0.245,-0.229 0.25,-0.211 0.26,-0.199C0.269,-0.186 0.285,-0.18 0.308,-0.18C0.331,-0.18 0.347,-0.186 0.357,-0.199C0.366,-0.211 0.371,-0.229 0.371,-0.252L0.371,-0.667L0.585,-0.667L0.585,-0.243C0.585,-0.199 0.579,-0.161 0.566,-0.128C0.553,-0.095 0.534,-0.068 0.51,-0.047C0.485,-0.026 0.456,-0.01 0.422,0.001C0.388,0.012 0.35,0.017 0.308,0.017ZM0.308,-0.103C0.208,-0.103 0.158,-0.152 0.158,-0.25L0.158,-0.587L0.132,-0.587L0.132,-0.25C0.132,-0.194 0.147,-0.151 0.178,-0.122C0.208,-0.092 0.251,-0.077 0.308,-0.077C0.365,-0.077 0.408,-0.092 0.439,-0.122C0.47,-0.151 0.485,-0.194 0.485,-0.25L0.485,-0.587L0.458,-0.587L0.458,-0.25C0.458,-0.152 0.408,-0.103 0.308,-0.103Z" style="fill:rgb(145,166,180);fill-rule:nonzero;"/>
                </g>
                <g transform="matrix(241.379,0,0,241.379,506.844,1188)">
                    <path d="M0.035,-0.667L0.428,-0.667L0.428,-0.492L0.248,-0.492L0.248,-0.418L0.425,-0.418L0.425,-0.252L0.248,-0.252L0.248,0L0.035,0L0.035,-0.667ZM0.161,-0.08L0.161,-0.323L0.351,-0.323L0.351,-0.347L0.161,-0.347L0.161,-0.563L0.361,-0.563L0.361,-0.587L0.135,-0.587L0.135,-0.08L0.161,-0.08Z" style="fill:rgb(145,166,180);fill-rule:nonzero;"/>
                </g>
            </g>
        </g>
        <g transform="matrix(7.57526e-17,-1.23713,1.29587,7.93494e-17,-965.639,662.431)">
            <path d="M193.377,991.281C193.377,979.537 188.49,968.274 179.791,959.97C171.093,951.665 159.295,947 146.993,947C146.991,947 146.988,947 146.986,947C134.684,947 122.886,951.665 114.188,959.97C105.489,968.274 100.602,979.537 100.602,991.281C100.602,1013.26 100.602,1039.74 100.602,1061.72C100.602,1073.46 105.489,1084.73 114.188,1093.03C122.886,1101.34 134.684,1106 146.986,1106C146.988,1106 146.991,1106 146.993,1106C159.295,1106 171.093,1101.34 179.791,1093.03C188.49,1084.73 193.377,1073.46 193.377,1061.72C193.377,1039.74 193.377,1013.26 193.377,991.281Z" style="fill:rgb(170,170,170);"/>
        </g>
        <g transform="matrix(7.57526e-17,-1.23713,1.29587,7.93494e-17,-965.639,777.205)">
            <path d="M193.377,991.281C193.377,979.537 188.49,968.274 179.791,959.97C171.093,951.665 159.295,947 146.993,947C146.991,947 146.988,947 146.986,947C134.684,947 122.886,951.665 114.188,959.97C105.489,968.274 100.602,979.537 100.602,991.281C100.602,1013.26 100.602,1039.74 100.602,1061.72C100.602,1073.46 105.489,1084.73 114.188,1093.03C122.886,1101.34 134.684,1106 146.986,1106C146.988,1106 146.991,1106 146.993,1106C159.295,1106 171.093,1101.34 179.791,1093.03C188.49,1084.73 193.377,1073.46 193.377,1061.72C193.377,1039.74 193.377,1013.26 193.377,991.281Z" style="fill:rgb(170,170,170);"/>
        </g>
        <g transform="matrix(7.57526e-17,-1.23713,1.29587,7.93494e-17,-965.639,891.98)">
            <path d="M193.377,991.281C193.377,979.537 188.49,968.274 179.791,959.97C171.093,951.665 159.295,947 146.993,947C146.991,947 146.988,947 146.986,947C134.684,947 122.886,951.665 114.188,959.97C105.489,968.274 100.602,979.537 100.602,991.281C100.602,1013.26 100.602,1039.74 100.602,1061.72C100.602,1073.46 105.489,1084.73 114.188,1093.03C122.886,1101.34 134.684,1106 146.986,1106C146.988,1106 146.991,1106 146.993,1106C159.295,1106 171.093,1101.34 179.791,1093.03C188.49,1084.73 193.377,1073.46 193.377,1061.72C193.377,1039.74 193.377,1013.26 193.377,991.281Z" style="fill:rgb(170,170,170);"/>
        </g>
        <g transform="matrix(7.57526e-17,-1.23713,1.29587,7.93494e-17,-965.639,1006.75)">
            <path d="M193.377,991.281C193.377,979.537 188.49,968.274 179.791,959.97C171.093,951.665 159.295,947 146.993,947C146.991,947 146.988,947 146.986,947C134.684,947 122.886,951.665 114.188,959.97C105.489,968.274 100.602,979.537 100.602,991.281C100.602,1013.26 100.602,1039.74 100.602,1061.72C100.602,1073.46 105.489,1084.73 114.188,1093.03C122.886,1101.34 134.684,1106 146.986,1106C146.988,1106 146.991,1106 146.993,1106C159.295,1106 171.093,1101.34 179.791,1093.03C188.49,1084.73 193.377,1073.46 193.377,1061.72C193.377,1039.74 193.377,1013.26 193.377,991.281Z" style="fill:rgb(170,170,170);"/>
        </g>
        <g transform="matrix(7.57526e-17,-1.23713,1.29587,7.93494e-17,-965.639,1121.53)">
            <path d="M193.377,991.281C193.377,979.537 188.49,968.274 179.791,959.97C171.093,951.665 159.295,947 146.993,947C146.991,947 146.988,947 146.986,947C134.684,947 122.886,951.665 114.188,959.97C105.489,968.274 100.602,979.537 100.602,991.281C100.602,1013.26 100.602,1039.74 100.602,1061.72C100.602,1073.46 105.489,1084.73 114.188,1093.03C122.886,1101.34 134.684,1106 146.986,1106C146.988,1106 146.991,1106 146.993,1106C159.295,1106 171.093,1101.34 179.791,1093.03C188.49,1084.73 193.377,1073.46 193.377,1061.72C193.377,1039.74 193.377,1013.26 193.377,991.281Z" style="fill:rgb(170,170,170);"/>
        </g>
        <g transform="matrix(7.57526e-17,-1.23713,1.28727,7.88226e-17,-956.122,1236.3)">
            <path d="M193.377,991.577C193.377,979.754 188.49,968.416 179.791,960.056C171.093,951.696 159.295,947 146.993,947C146.991,947 146.988,947 146.986,947C134.684,947 122.886,951.696 114.188,960.056C105.489,968.416 100.602,979.754 100.602,991.577C100.602,1013.4 100.602,1039.6 100.602,1061.42C100.602,1073.25 105.489,1084.58 114.188,1092.94C122.886,1101.3 134.684,1106 146.986,1106C146.988,1106 146.991,1106 146.993,1106C159.295,1106 171.093,1101.3 179.791,1092.94C188.49,1084.58 193.377,1073.25 193.377,1061.42C193.377,1039.6 193.377,1013.4 193.377,991.577Z" style="fill:rgb(170,170,170);"/>
        </g>
        <g transform="matrix(7.57526e-17,-1.23713,1.28727,7.88226e-17,-956.122,1351.08)">
            <path d="M193.377,991.577C193.377,979.754 188.49,968.416 179.791,960.056C171.093,951.696 159.295,947 146.993,947C146.991,947 146.988,947 146.986,947C134.684,947 122.886,951.696 114.188,960.056C105.489,968.416 100.602,979.754 100.602,991.577C100.602,1013.4 100.602,1039.6 100.602,1061.42C100.602,1073.25 105.489,1084.58 114.188,1092.94C122.886,1101.3 134.684,1106 146.986,1106C146.988,1106 146.991,1106 146.993,1106C159.295,1106 171.093,1101.3 179.791,1092.94C188.49,1084.58 193.377,1073.25 193.377,1061.42C193.377,1039.6 193.377,1013.4 193.377,991.577Z" style="fill:rgb(170,170,170);"/>
        </g>
        <g transform="matrix(7.57526e-17,-1.23713,1.28727,7.88226e-17,-956.122,1465.61)">
            <path d="M193.377,991.577C193.377,979.754 188.49,968.416 179.791,960.056C171.093,951.696 159.295,947 146.993,947C146.991,947 146.988,947 146.986,947C134.684,947 122.886,951.696 114.188,960.056C105.489,968.416 100.602,979.754 100.602,991.577C100.602,1013.4 100.602,1039.6 100.602,1061.42C100.602,1073.25 105.489,1084.58 114.188,1092.94C122.886,1101.3 134.684,1106 146.986,1106C146.988,1106 146.991,1106 146.993,1106C159.295,1106 171.093,1101.3 179.791,1092.94C188.49,1084.58 193.377,1073.25 193.377,1061.42C193.377,1039.6 193.377,1013.4 193.377,991.577Z" style="fill:rgb(170,170,170);"/>
        </g>
        <g transform="matrix(0.174645,0,0,0.174645,271.937,366.28)">
            <g transform="matrix(238.579,0,0,238.579,103.823,744.432)">
                <path d="M0.271,-0.647L0.141,-0.647L0.203,-0.754L0.385,-0.754L0.385,0L0.271,0L0.271,-0.647Z" style="fill:rgb(234,230,227);fill-rule:nonzero;"/>
            </g>
        </g>
        <g transform="matrix(0.174645,0,0,0.174645,271.937,481.263)">
            <g transform="matrix(238.579,0,0,238.579,103.823,744.432)">
                <path d="M0.25,-0.107L0.531,-0.107L0.531,0L0.025,0L0.287,-0.317C0.312,-0.348 0.334,-0.376 0.351,-0.399C0.369,-0.422 0.382,-0.441 0.391,-0.457C0.41,-0.488 0.419,-0.515 0.419,-0.54C0.419,-0.575 0.407,-0.604 0.382,-0.628C0.357,-0.652 0.326,-0.664 0.29,-0.664C0.214,-0.664 0.17,-0.618 0.159,-0.528L0.046,-0.528C0.064,-0.687 0.144,-0.767 0.287,-0.767C0.355,-0.767 0.413,-0.745 0.459,-0.701C0.506,-0.658 0.53,-0.604 0.53,-0.539C0.53,-0.498 0.519,-0.458 0.497,-0.418C0.486,-0.398 0.47,-0.374 0.448,-0.345C0.427,-0.317 0.4,-0.284 0.368,-0.246L0.25,-0.107Z" style="fill:rgb(234,230,227);fill-rule:nonzero;"/>
            </g>
        </g>
        <g transform="matrix(0.174645,0,0,0.174645,271.937,596.208)">
            <g transform="matrix(238.579,0,0,238.579,103.823,744.432)">
                <path d="M0.259,-0.35L0.259,-0.447C0.307,-0.447 0.339,-0.453 0.356,-0.463C0.386,-0.482 0.4,-0.513 0.4,-0.554C0.4,-0.586 0.39,-0.613 0.368,-0.633C0.347,-0.653 0.319,-0.664 0.286,-0.664C0.254,-0.664 0.23,-0.656 0.212,-0.641C0.196,-0.625 0.183,-0.599 0.175,-0.562L0.062,-0.562C0.074,-0.632 0.098,-0.684 0.134,-0.718C0.171,-0.751 0.222,-0.767 0.287,-0.767C0.353,-0.767 0.407,-0.748 0.449,-0.708C0.49,-0.67 0.511,-0.62 0.511,-0.559C0.511,-0.49 0.484,-0.436 0.429,-0.397C0.492,-0.361 0.523,-0.301 0.523,-0.218C0.523,-0.151 0.5,-0.095 0.455,-0.052C0.409,-0.009 0.351,0.012 0.279,0.012C0.188,0.012 0.121,-0.021 0.077,-0.088C0.059,-0.116 0.047,-0.155 0.042,-0.204L0.152,-0.204C0.158,-0.168 0.172,-0.14 0.195,-0.12C0.218,-0.101 0.247,-0.091 0.284,-0.091C0.32,-0.091 0.351,-0.104 0.375,-0.128C0.399,-0.153 0.411,-0.185 0.411,-0.223C0.411,-0.274 0.393,-0.31 0.357,-0.332C0.336,-0.344 0.303,-0.35 0.259,-0.35Z" style="fill:rgb(234,230,227);fill-rule:nonzero;"/>
            </g>
        </g>
        <g transform="matrix(0.174645,0,0,0.174645,271.937,710.624)">
            <g transform="matrix(238.579,0,0,238.579,103.823,744.432)">
                <path d="M0.493,-0.21L0.573,-0.21L0.573,-0.107L0.493,-0.107L0.493,0L0.379,0L0.379,-0.107L0.009,-0.107L0.493,-0.81L0.493,-0.21ZM0.379,-0.21L0.379,-0.463L0.206,-0.21L0.379,-0.21Z" style="fill:rgb(234,230,227);fill-rule:nonzero;"/>
            </g>
        </g>
        <g transform="matrix(0.174645,0,0,0.174645,271.937,825.398)">
            <g transform="matrix(238.579,0,0,238.579,103.823,744.432)">
                <path d="M0.526,-0.647L0.293,-0.647L0.256,-0.522C0.262,-0.523 0.267,-0.524 0.272,-0.524C0.277,-0.524 0.282,-0.524 0.286,-0.524C0.359,-0.524 0.419,-0.5 0.466,-0.45C0.514,-0.401 0.537,-0.338 0.537,-0.261C0.537,-0.182 0.51,-0.116 0.457,-0.065C0.404,-0.014 0.336,0.012 0.255,0.012C0.155,0.012 0.077,-0.035 0.019,-0.128L0.105,-0.201C0.129,-0.161 0.153,-0.132 0.177,-0.116C0.201,-0.099 0.23,-0.091 0.265,-0.091C0.311,-0.091 0.349,-0.107 0.38,-0.139C0.411,-0.172 0.426,-0.212 0.426,-0.259C0.426,-0.307 0.411,-0.346 0.38,-0.377C0.35,-0.409 0.312,-0.424 0.266,-0.424C0.215,-0.424 0.17,-0.402 0.133,-0.357L0.096,-0.357L0.214,-0.754L0.526,-0.754L0.526,-0.647Z" style="fill:rgb(234,230,227);fill-rule:nonzero;"/>
            </g>
        </g>
        <g transform="matrix(0.174645,0,0,0.174645,271.937,940.172)">
            <g transform="matrix(238.579,0,0,238.579,103.823,744.432)">
                <path d="M0.393,-0.78L0.476,-0.718L0.296,-0.473C0.306,-0.474 0.314,-0.475 0.321,-0.476C0.328,-0.476 0.333,-0.477 0.337,-0.477C0.398,-0.477 0.451,-0.453 0.496,-0.406C0.54,-0.36 0.562,-0.304 0.562,-0.239C0.562,-0.17 0.537,-0.111 0.488,-0.062C0.439,-0.012 0.38,0.012 0.311,0.012C0.242,0.012 0.182,-0.012 0.131,-0.061C0.08,-0.109 0.055,-0.167 0.055,-0.233C0.055,-0.292 0.08,-0.356 0.129,-0.422L0.393,-0.78ZM0.451,-0.232C0.451,-0.272 0.437,-0.306 0.41,-0.333C0.382,-0.361 0.348,-0.375 0.309,-0.375C0.269,-0.375 0.235,-0.362 0.208,-0.334C0.18,-0.306 0.166,-0.273 0.166,-0.233C0.166,-0.194 0.18,-0.16 0.208,-0.133C0.235,-0.105 0.269,-0.091 0.309,-0.091C0.348,-0.091 0.382,-0.105 0.409,-0.133C0.437,-0.161 0.451,-0.194 0.451,-0.232Z" style="fill:rgb(234,230,227);fill-rule:nonzero;"/>
            </g>
        </g>
        <g transform="matrix(0.174645,0,0,0.174645,271.937,1054.95)">
            <g transform="matrix(238.579,0,0,238.579,103.823,744.432)">
                <path d="M0.424,-0.647L0.052,-0.647L0.052,-0.754L0.614,-0.754L0.138,0.026L0.048,-0.031L0.424,-0.647Z" style="fill:rgb(234,230,227);fill-rule:nonzero;"/>
            </g>
        </g>
        <g transform="matrix(0.174645,0,0,0.174645,271.937,1169.48)">
            <g transform="matrix(238.579,0,0,238.579,103.823,744.432)">
                <path d="M0.174,-0.392C0.118,-0.431 0.091,-0.484 0.091,-0.552C0.091,-0.613 0.112,-0.664 0.154,-0.705C0.196,-0.746 0.249,-0.767 0.312,-0.767C0.374,-0.767 0.426,-0.746 0.468,-0.705C0.509,-0.664 0.53,-0.613 0.53,-0.551C0.53,-0.486 0.503,-0.434 0.448,-0.393C0.478,-0.376 0.502,-0.353 0.519,-0.321C0.537,-0.29 0.545,-0.255 0.545,-0.216C0.545,-0.149 0.524,-0.094 0.48,-0.052C0.436,-0.009 0.381,0.012 0.313,0.012C0.243,0.012 0.185,-0.009 0.14,-0.052C0.095,-0.095 0.072,-0.149 0.072,-0.214C0.072,-0.299 0.106,-0.358 0.174,-0.392ZM0.198,-0.552C0.198,-0.52 0.209,-0.493 0.23,-0.471C0.253,-0.449 0.279,-0.438 0.311,-0.438C0.341,-0.438 0.368,-0.449 0.39,-0.471C0.412,-0.493 0.423,-0.52 0.423,-0.551C0.423,-0.582 0.412,-0.608 0.39,-0.63C0.368,-0.653 0.341,-0.664 0.311,-0.664C0.28,-0.664 0.253,-0.653 0.231,-0.63C0.209,-0.608 0.198,-0.582 0.198,-0.552ZM0.184,-0.218C0.184,-0.183 0.196,-0.153 0.22,-0.128C0.244,-0.104 0.274,-0.091 0.309,-0.091C0.343,-0.091 0.373,-0.104 0.397,-0.128C0.421,-0.153 0.434,-0.182 0.434,-0.217C0.434,-0.252 0.421,-0.281 0.397,-0.306C0.373,-0.33 0.343,-0.342 0.309,-0.342C0.274,-0.342 0.245,-0.33 0.22,-0.306C0.196,-0.281 0.184,-0.252 0.184,-0.218Z" style="fill:rgb(234,230,227);fill-rule:nonzero;"/>
            </g>
        </g>
        <g transform="matrix(0.153274,0,0,0.153274,79.3346,232.471)">
            <g transform="matrix(271.844,0,0,271.844,154.069,457.049)">
                <path d="M0.647,-0.713L0.647,-0.579C0.582,-0.634 0.514,-0.661 0.443,-0.661C0.366,-0.661 0.301,-0.633 0.248,-0.578C0.194,-0.522 0.167,-0.455 0.167,-0.375C0.167,-0.295 0.194,-0.229 0.248,-0.174C0.301,-0.12 0.366,-0.093 0.444,-0.093C0.484,-0.093 0.518,-0.099 0.546,-0.112C0.562,-0.119 0.578,-0.128 0.594,-0.139C0.611,-0.15 0.629,-0.163 0.647,-0.179L0.647,-0.042C0.582,-0.005 0.514,0.014 0.442,0.014C0.335,0.014 0.243,-0.024 0.167,-0.099C0.091,-0.175 0.053,-0.266 0.053,-0.374C0.053,-0.47 0.084,-0.555 0.148,-0.63C0.226,-0.722 0.327,-0.769 0.451,-0.769C0.519,-0.769 0.584,-0.75 0.647,-0.713Z" style="fill:rgb(136,136,136);fill-rule:nonzero;"/>
            </g>
            <g transform="matrix(271.844,0,0,271.844,344.546,457.049)">
                <path d="M0.204,-0.754L0.204,-0.107L0.426,-0.107L0.426,0L0.09,0L0.09,-0.754L0.204,-0.754Z" style="fill:rgb(136,136,136);fill-rule:nonzero;"/>
            </g>
            <g transform="matrix(271.844,0,0,271.844,465.071,457.049)">
                <path d="M0.204,-0.453L0.498,-0.754L0.649,-0.754L0.309,-0.413L0.651,0L0.499,0L0.228,-0.335L0.204,-0.312L0.204,0L0.09,0L0.09,-0.754L0.204,-0.754L0.204,-0.453Z" style="fill:rgb(136,136,136);fill-rule:nonzero;"/>
            </g>
        </g>
        <g transform="matrix(0.153274,0,0,0.153274,245.277,232.471)">
            <g transform="matrix(271.844,0,0,271.844,154.069,457.049)">
                <path d="M0.517,-0.642L0.424,-0.587C0.407,-0.617 0.391,-0.636 0.375,-0.646C0.359,-0.656 0.338,-0.661 0.312,-0.661C0.28,-0.661 0.254,-0.652 0.233,-0.634C0.213,-0.617 0.202,-0.595 0.202,-0.568C0.202,-0.531 0.229,-0.501 0.284,-0.479L0.359,-0.448C0.421,-0.424 0.465,-0.393 0.494,-0.358C0.522,-0.322 0.536,-0.278 0.536,-0.227C0.536,-0.157 0.513,-0.1 0.467,-0.055C0.42,-0.009 0.362,0.014 0.293,0.014C0.228,0.014 0.174,-0.006 0.131,-0.044C0.089,-0.083 0.063,-0.138 0.053,-0.208L0.168,-0.233C0.173,-0.189 0.182,-0.159 0.195,-0.142C0.219,-0.109 0.253,-0.093 0.298,-0.093C0.333,-0.093 0.363,-0.105 0.386,-0.128C0.41,-0.152 0.421,-0.182 0.421,-0.219C0.421,-0.233 0.419,-0.247 0.415,-0.259C0.411,-0.271 0.405,-0.282 0.396,-0.293C0.388,-0.303 0.376,-0.313 0.363,-0.322C0.349,-0.33 0.333,-0.339 0.314,-0.347L0.241,-0.377C0.138,-0.421 0.086,-0.485 0.086,-0.569C0.086,-0.625 0.108,-0.673 0.151,-0.711C0.195,-0.749 0.249,-0.769 0.313,-0.769C0.4,-0.769 0.468,-0.726 0.517,-0.642Z" style="fill:rgb(136,136,136);fill-rule:nonzero;"/>
            </g>
            <g transform="matrix(271.844,0,0,271.844,317.202,457.049)">
                <path d="M0.183,-0.373L0.183,0L0.073,0L0.073,-0.373L0.026,-0.373L0.026,-0.476L0.073,-0.476L0.073,-0.65L0.183,-0.65L0.183,-0.476L0.268,-0.476L0.268,-0.373L0.183,-0.373Z" style="fill:rgb(136,136,136);fill-rule:nonzero;"/>
            </g>
            <g transform="matrix(271.844,0,0,271.844,393.924,457.049)">
                <path d="M0.502,-0.212L0.162,-0.212C0.165,-0.173 0.177,-0.142 0.2,-0.119C0.222,-0.096 0.251,-0.084 0.286,-0.084C0.313,-0.084 0.336,-0.091 0.354,-0.104C0.372,-0.117 0.392,-0.141 0.414,-0.176L0.507,-0.125C0.493,-0.1 0.477,-0.079 0.461,-0.062C0.445,-0.044 0.428,-0.03 0.41,-0.019C0.392,-0.008 0.372,0.001 0.351,0.006C0.33,0.011 0.307,0.014 0.282,0.014C0.211,0.014 0.154,-0.009 0.111,-0.055C0.068,-0.101 0.047,-0.161 0.047,-0.237C0.047,-0.313 0.068,-0.373 0.109,-0.42C0.151,-0.466 0.207,-0.489 0.276,-0.489C0.346,-0.489 0.402,-0.466 0.442,-0.422C0.483,-0.378 0.503,-0.316 0.503,-0.238L0.502,-0.212ZM0.39,-0.302C0.374,-0.36 0.337,-0.39 0.279,-0.39C0.265,-0.39 0.253,-0.388 0.241,-0.384C0.229,-0.379 0.219,-0.374 0.209,-0.366C0.2,-0.358 0.191,-0.349 0.185,-0.338C0.178,-0.328 0.173,-0.315 0.169,-0.302L0.39,-0.302Z" style="fill:rgb(136,136,136);fill-rule:nonzero;"/>
            </g>
            <g transform="matrix(271.844,0,0,271.844,544.314,457.049)">
                <path d="M0.179,0.259L0.069,0.259L0.069,-0.476L0.179,-0.476L0.179,-0.424C0.222,-0.467 0.272,-0.489 0.327,-0.489C0.392,-0.489 0.446,-0.465 0.488,-0.417C0.531,-0.369 0.553,-0.308 0.553,-0.235C0.553,-0.164 0.531,-0.105 0.489,-0.057C0.446,-0.01 0.393,0.014 0.329,0.014C0.273,0.014 0.223,-0.009 0.179,-0.053L0.179,0.259ZM0.44,-0.235C0.44,-0.28 0.428,-0.318 0.403,-0.346C0.378,-0.375 0.347,-0.39 0.309,-0.39C0.268,-0.39 0.236,-0.376 0.21,-0.348C0.185,-0.32 0.173,-0.283 0.173,-0.237C0.173,-0.193 0.185,-0.156 0.21,-0.127C0.235,-0.099 0.268,-0.084 0.308,-0.084C0.346,-0.084 0.378,-0.099 0.402,-0.127C0.428,-0.156 0.44,-0.192 0.44,-0.235Z" style="fill:rgb(136,136,136);fill-rule:nonzero;"/>
            </g>
            <g transform="matrix(271.844,0,0,271.844,707.315,457.049)">
                <path d="M0.346,-0.395L0.255,-0.346C0.241,-0.375 0.223,-0.39 0.202,-0.39C0.192,-0.39 0.183,-0.387 0.176,-0.38C0.169,-0.373 0.165,-0.365 0.165,-0.354C0.165,-0.336 0.186,-0.318 0.229,-0.3C0.287,-0.275 0.326,-0.252 0.346,-0.231C0.366,-0.21 0.376,-0.181 0.376,-0.146C0.376,-0.1 0.36,-0.061 0.326,-0.03C0.293,-0.001 0.253,0.014 0.207,0.014C0.127,0.014 0.07,-0.025 0.037,-0.103L0.131,-0.146C0.144,-0.124 0.154,-0.109 0.161,-0.103C0.174,-0.091 0.19,-0.084 0.208,-0.084C0.246,-0.084 0.264,-0.101 0.264,-0.135C0.264,-0.155 0.25,-0.173 0.221,-0.19C0.21,-0.195 0.199,-0.201 0.188,-0.206C0.177,-0.211 0.166,-0.217 0.154,-0.222C0.122,-0.238 0.1,-0.253 0.087,-0.269C0.07,-0.289 0.062,-0.314 0.062,-0.346C0.062,-0.387 0.076,-0.421 0.104,-0.448C0.133,-0.475 0.169,-0.489 0.21,-0.489C0.271,-0.489 0.316,-0.457 0.346,-0.395Z" style="fill:rgb(136,136,136);fill-rule:nonzero;"/>
            </g>
        </g>
        <g transform="matrix(1.23713,0,0,1,-38.0663,-691.084)">
            <path d="M193.377,1004.38C193.377,989.164 188.49,974.568 179.791,963.807C171.093,953.046 159.295,947 146.993,947C146.991,947 146.988,947 146.986,947C134.684,947 122.886,953.046 114.188,963.807C105.489,974.568 100.602,989.164 100.602,1004.38C100.602,1018.78 100.602,1034.22 100.602,1048.62C100.602,1063.84 105.489,1078.43 114.188,1089.19C122.886,1099.95 134.684,1106 146.986,1106C146.988,1106 146.991,1106 146.993,1106C159.295,1106 171.093,1099.95 179.791,1089.19C188.49,1078.43 193.377,1063.84 193.377,1048.62C193.377,1034.22 193.377,1018.78 193.377,1004.38Z" style="fill:none;stroke:rgb(170,170,170);stroke-width:3.55px;"/>
        </g>
        <g transform="matrix(3.9971,0,0,3.9971,-12.0535,-43.9681)">
            <path d="M19.476,131.234L51.476,131.234" style="fill:none;stroke:rgb(170,170,170);stroke-width:0.83px;"/>
        </g>
        <g transform="matrix(3.9971,0,0,3.9971,-12.0535,-32.395)">
            <path d="M19.476,157.105L51.476,157.105" style="fill:none;stroke:rgb(170,170,170);stroke-width:0.83px;"/>
        </g>
        <g transform="matrix(3.9971,0,0,3.9971,-12.0535,-21.2381)">
            <path d="M19.476,182.872L51.476,182.872" style="fill:none;stroke:rgb(170,170,170);stroke-width:0.83px;"/>
        </g>
        <g transform="matrix(3.9971,0,0,3.9971,-12.0535,-9.24875)">
            <path d="M19.476,208.691L51.476,208.691" style="fill:none;stroke:rgb(170,170,170);stroke-width:0.83px;"/>
        </g>
        <g transform="matrix(3.9971,0,0,3.9971,-12.0535,1.60102)">
            <path d="M19.476,234.691L51.476,234.691" style="fill:none;stroke:rgb(170,170,170);stroke-width:0.83px;"/>
        </g>
        <g transform="matrix(3.9971,0,0,3.9971,-12.0535,13.1741)">
            <path d="M19.476,260.51L51.476,260.51" style="fill:none;stroke:rgb(170,170,170);stroke-width:0.83px;"/>
        </g>
        <g transform="matrix(3.9971,0,0,3.9971,-12.0535,24.7472)">
            <path d="M19.476,286.46L51.476,286.46" style="fill:none;stroke:rgb(170,170,170);stroke-width:0.83px;"/>
        </g>
        <g transform="matrix(3.9971,0,0,3.9971,-12.0535,35.5557)">
            <path d="M19.476,312.358L51.45,312.358" style="fill:none;stroke:rgb(170,170,170);stroke-width:0.83px;"/>
        </g>
    </g>
</svg>
