<?xml version="1.0" encoding="UTF-8" standalone="no"?>
<!DOCTYPE svg PUBLIC "-//W3C//DTD SVG 1.1//EN" "http://www.w3.org/Graphics/SVG/1.1/DTD/svg11.dtd">
<svg width="100%" height="100%" viewBox="0 0 90 380" version="1.1" xmlns="http://www.w3.org/2000/svg" xmlns:xlink="http://www.w3.org/1999/xlink" xml:space="preserve" xmlns:serif="http://www.serif.com/" style="fill-rule:evenodd;clip-rule:evenodd;stroke-linecap:round;stroke-linejoin:round;stroke-miterlimit:1.5;">
    <g id="panel" transform="matrix(0.250181,0,0,0.250181,-14.9844,0)">
        <rect x="0" y="0" width="479.528" height="1518.9" style="fill:rgb(234,230,227);"/>
        <g transform="matrix(0.750194,0,0,1,59.8943,108)">
            <path d="M0,32L479.528,32" style="fill:none;stroke:rgb(170,170,170);stroke-width:2.36px;"/>
            <g transform="matrix(1,0,0,1,0,39.1931)">
                <path d="M0,32L479.528,32" style="fill:none;stroke:rgb(170,170,170);stroke-width:2.36px;"/>
            </g>
            <g transform="matrix(1,0,0,1,0,78.3863)">
                <path d="M0,32L479.528,32" style="fill:none;stroke:rgb(170,170,170);stroke-width:2.36px;"/>
            </g>
            <g transform="matrix(1,0,0,1,0,117.579)">
                <path d="M0,32L479.528,32" style="fill:none;stroke:rgb(170,170,170);stroke-width:2.36px;"/>
            </g>
            <g transform="matrix(1,0,0,1,0,156.773)">
                <path d="M0,32L479.528,32" style="fill:none;stroke:rgb(170,170,170);stroke-width:2.36px;"/>
            </g>
        </g>
        <g>
            <g transform="matrix(1,0,0,1,265.764,431.898)">
                <circle cx="-182" cy="1072" r="397" style="fill:none;stroke:rgb(170,170,170);stroke-width:2.08px;"/>
            </g>
            <g transform="matrix(0.874055,0,0,0.874055,242.842,566.91)">
                <circle cx="-182" cy="1072" r="397" style="fill:none;stroke:rgb(170,170,170);stroke-width:2.38px;"/>
            </g>
            <g transform="matrix(1.11083,0,0,1.11083,285.935,313.087)">
                <circle cx="-182" cy="1072" r="397" style="fill:none;stroke:rgb(170,170,170);stroke-width:1.88px;"/>
            </g>
            <g transform="matrix(1.22166,0,0,1.22166,306.106,194.275)">
                <circle cx="-182" cy="1072" r="397" style="fill:none;stroke:rgb(170,170,170);stroke-width:1.71px;"/>
            </g>
        </g>
        <g transform="matrix(1,0,0,1,2.49855,-15.0058)">
            <g transform="matrix(1,0,0,1,-1,8)">
                <g transform="matrix(1,0,0,1,6.20594,-24.898)">
                    <circle cx="187.171" cy="215.865" r="92.774" style="fill:rgb(147,72,103);"/>
                </g>
                <g transform="matrix(1,0,0,1,98.9803,-24.898)">
                    <circle cx="187.171" cy="215.865" r="92.774" style="fill:rgb(93,128,125);"/>
                </g>
            </g>
            <g transform="matrix(1,0,0,1,0,-4)">
                <g transform="matrix(1,0,0,1,6.20594,-24.898)">
                    <circle cx="187.171" cy="215.865" r="92.774" style="fill:rgb(212,124,160);"/>
                </g>
                <g transform="matrix(1,0,0,1,98.9803,-24.898)">
                    <circle cx="187.171" cy="215.865" r="92.774" style="fill:rgb(145,180,177);"/>
                </g>
            </g>
        </g>
        <g transform="matrix(0.628644,0,0,0.628644,69.0069,600.471)">
            <g transform="matrix(1.83752,0,0,1.83752,-117.396,-704.788)">
                <g transform="matrix(50,0,0,50,78.576,1046.78)">
                    <path d="M0.146,-0.333C0.146,-0.365 0.152,-0.395 0.163,-0.423C0.173,-0.451 0.189,-0.475 0.209,-0.496C0.229,-0.517 0.253,-0.533 0.282,-0.545C0.311,-0.557 0.343,-0.563 0.378,-0.563C0.395,-0.563 0.411,-0.562 0.425,-0.56C0.438,-0.557 0.45,-0.554 0.459,-0.551C0.47,-0.548 0.48,-0.544 0.488,-0.539L0.502,-0.563C0.491,-0.568 0.48,-0.572 0.468,-0.576C0.457,-0.579 0.444,-0.582 0.429,-0.585C0.414,-0.588 0.397,-0.589 0.378,-0.589C0.344,-0.589 0.312,-0.583 0.281,-0.571C0.25,-0.559 0.222,-0.542 0.199,-0.52C0.175,-0.497 0.156,-0.47 0.142,-0.439C0.127,-0.407 0.12,-0.372 0.12,-0.333C0.12,-0.294 0.127,-0.258 0.141,-0.227C0.154,-0.196 0.173,-0.169 0.197,-0.147C0.221,-0.124 0.249,-0.107 0.281,-0.095C0.313,-0.083 0.347,-0.077 0.383,-0.077C0.403,-0.077 0.421,-0.079 0.437,-0.082C0.453,-0.085 0.467,-0.089 0.478,-0.093C0.491,-0.098 0.502,-0.103 0.512,-0.109L0.498,-0.133C0.489,-0.127 0.479,-0.122 0.468,-0.118C0.458,-0.114 0.446,-0.111 0.432,-0.108C0.418,-0.105 0.402,-0.103 0.383,-0.103C0.346,-0.103 0.313,-0.109 0.284,-0.121C0.255,-0.133 0.23,-0.149 0.21,-0.17C0.189,-0.191 0.173,-0.215 0.163,-0.243C0.152,-0.271 0.146,-0.301 0.146,-0.333ZM0.02,-0.333C0.02,-0.386 0.029,-0.435 0.048,-0.478C0.067,-0.521 0.092,-0.557 0.124,-0.588C0.156,-0.619 0.193,-0.642 0.236,-0.659C0.279,-0.675 0.324,-0.683 0.372,-0.683C0.41,-0.683 0.444,-0.679 0.474,-0.672C0.503,-0.665 0.529,-0.656 0.55,-0.647C0.575,-0.636 0.596,-0.625 0.614,-0.612L0.509,-0.427C0.498,-0.435 0.487,-0.443 0.474,-0.45C0.463,-0.455 0.449,-0.46 0.434,-0.466C0.418,-0.471 0.4,-0.473 0.38,-0.473C0.359,-0.473 0.34,-0.469 0.323,-0.462C0.306,-0.455 0.291,-0.445 0.278,-0.432C0.265,-0.419 0.254,-0.405 0.247,-0.388C0.24,-0.371 0.236,-0.352 0.236,-0.333C0.236,-0.314 0.24,-0.296 0.248,-0.279C0.255,-0.262 0.266,-0.247 0.279,-0.234C0.292,-0.221 0.308,-0.211 0.326,-0.204C0.344,-0.197 0.364,-0.193 0.385,-0.193C0.406,-0.193 0.425,-0.196 0.442,-0.201C0.459,-0.206 0.473,-0.212 0.484,-0.219C0.497,-0.226 0.509,-0.235 0.519,-0.245L0.624,-0.06C0.606,-0.045 0.585,-0.032 0.56,-0.021C0.539,-0.012 0.513,-0.003 0.483,0.005C0.453,0.013 0.419,0.017 0.38,0.017C0.328,0.017 0.28,0.009 0.236,-0.009C0.192,-0.026 0.154,-0.049 0.122,-0.08C0.09,-0.111 0.065,-0.148 0.047,-0.191C0.029,-0.234 0.02,-0.281 0.02,-0.333Z" style="fill:rgb(170,170,170);fill-rule:nonzero;"/>
                </g>
                <g transform="matrix(50,0,0,50,109.276,1046.78)">
                    <path d="M0.02,-0.333C0.02,-0.381 0.029,-0.426 0.048,-0.469C0.066,-0.512 0.091,-0.549 0.123,-0.581C0.154,-0.612 0.191,-0.637 0.234,-0.656C0.277,-0.674 0.322,-0.683 0.37,-0.683C0.418,-0.683 0.463,-0.674 0.506,-0.656C0.549,-0.637 0.586,-0.612 0.618,-0.581C0.649,-0.549 0.674,-0.512 0.693,-0.469C0.711,-0.426 0.72,-0.381 0.72,-0.333C0.72,-0.285 0.711,-0.24 0.693,-0.197C0.674,-0.154 0.649,-0.117 0.618,-0.086C0.586,-0.054 0.549,-0.029 0.506,-0.011C0.463,0.008 0.418,0.017 0.37,0.017C0.322,0.017 0.277,0.008 0.234,-0.011C0.191,-0.029 0.154,-0.054 0.123,-0.086C0.091,-0.117 0.066,-0.154 0.048,-0.197C0.029,-0.24 0.02,-0.285 0.02,-0.333ZM0.114,-0.333C0.114,-0.298 0.121,-0.265 0.134,-0.234C0.147,-0.203 0.166,-0.175 0.189,-0.152C0.212,-0.129 0.24,-0.11 0.271,-0.097C0.302,-0.084 0.335,-0.077 0.37,-0.077C0.405,-0.077 0.439,-0.084 0.47,-0.097C0.501,-0.11 0.528,-0.129 0.551,-0.152C0.574,-0.175 0.593,-0.203 0.606,-0.234C0.619,-0.265 0.626,-0.298 0.626,-0.333C0.626,-0.368 0.619,-0.401 0.606,-0.433C0.593,-0.464 0.574,-0.491 0.551,-0.514C0.528,-0.537 0.501,-0.556 0.47,-0.569C0.439,-0.582 0.405,-0.589 0.37,-0.589C0.335,-0.589 0.302,-0.582 0.271,-0.569C0.24,-0.556 0.212,-0.537 0.189,-0.514C0.166,-0.491 0.147,-0.464 0.134,-0.433C0.121,-0.401 0.114,-0.368 0.114,-0.333ZM0.23,-0.333C0.23,-0.314 0.234,-0.296 0.241,-0.279C0.248,-0.262 0.258,-0.247 0.271,-0.234C0.284,-0.221 0.299,-0.211 0.316,-0.204C0.333,-0.197 0.351,-0.193 0.37,-0.193C0.389,-0.193 0.408,-0.197 0.425,-0.204C0.442,-0.211 0.456,-0.221 0.469,-0.234C0.482,-0.247 0.492,-0.262 0.499,-0.279C0.506,-0.296 0.51,-0.314 0.51,-0.333C0.51,-0.352 0.506,-0.371 0.499,-0.388C0.492,-0.405 0.482,-0.419 0.469,-0.432C0.456,-0.445 0.442,-0.455 0.425,-0.462C0.408,-0.469 0.389,-0.473 0.37,-0.473C0.351,-0.473 0.333,-0.469 0.316,-0.462C0.299,-0.455 0.284,-0.445 0.271,-0.432C0.258,-0.419 0.248,-0.405 0.241,-0.388C0.234,-0.371 0.23,-0.352 0.23,-0.333ZM0.37,-0.103C0.338,-0.103 0.308,-0.109 0.281,-0.121C0.253,-0.133 0.229,-0.15 0.208,-0.171C0.187,-0.192 0.17,-0.216 0.158,-0.244C0.146,-0.271 0.14,-0.301 0.14,-0.333C0.14,-0.365 0.146,-0.395 0.158,-0.423C0.17,-0.45 0.187,-0.474 0.208,-0.496C0.229,-0.517 0.253,-0.533 0.281,-0.545C0.308,-0.557 0.338,-0.563 0.37,-0.563C0.402,-0.563 0.432,-0.557 0.46,-0.545C0.487,-0.533 0.511,-0.517 0.533,-0.496C0.554,-0.474 0.57,-0.45 0.582,-0.423C0.594,-0.395 0.6,-0.365 0.6,-0.333C0.6,-0.301 0.594,-0.271 0.582,-0.244C0.57,-0.216 0.554,-0.192 0.533,-0.171C0.511,-0.15 0.487,-0.133 0.46,-0.121C0.432,-0.109 0.402,-0.103 0.37,-0.103Z" style="fill:rgb(170,170,170);fill-rule:nonzero;"/>
                </g>
                <g transform="matrix(50,0,0,50,146.276,1046.78)">
                    <path d="M0.035,-0.667L0.257,-0.667L0.257,-0.175L0.441,-0.175L0.441,0L0.035,0L0.035,-0.667ZM0.385,-0.08L0.385,-0.104L0.161,-0.104L0.161,-0.587L0.135,-0.587L0.135,-0.08L0.385,-0.08Z" style="fill:rgb(170,170,170);fill-rule:nonzero;"/>
                </g>
                <g transform="matrix(50,0,0,50,168.326,1046.78)">
                    <path d="M0.035,-0.667L0.257,-0.667L0.257,-0.175L0.441,-0.175L0.441,0L0.035,0L0.035,-0.667ZM0.385,-0.08L0.385,-0.104L0.161,-0.104L0.161,-0.587L0.135,-0.587L0.135,-0.08L0.385,-0.08Z" style="fill:rgb(170,170,170);fill-rule:nonzero;"/>
                </g>
                <g transform="matrix(50,0,0,50,190.376,1046.78)">
                    <path d="M0.035,-0.667L0.261,-0.667L0.261,0L0.035,0L0.035,-0.667ZM0.161,-0.08L0.161,-0.587L0.135,-0.587L0.135,-0.08L0.161,-0.08Z" style="fill:rgb(170,170,170);fill-rule:nonzero;"/>
                </g>
                <g transform="matrix(50,0,0,50,205.176,1046.78)">
                    <path d="M0.035,0L0.035,-0.667L0.22,-0.667C0.283,-0.667 0.339,-0.66 0.388,-0.646C0.437,-0.632 0.478,-0.611 0.512,-0.583C0.545,-0.555 0.571,-0.52 0.589,-0.479C0.606,-0.437 0.615,-0.389 0.615,-0.334C0.615,-0.279 0.606,-0.231 0.589,-0.19C0.571,-0.148 0.545,-0.113 0.512,-0.085C0.478,-0.057 0.437,-0.036 0.388,-0.022C0.339,-0.007 0.283,0 0.22,0L0.035,0ZM0.161,-0.104L0.161,-0.563L0.22,-0.563C0.305,-0.563 0.371,-0.544 0.418,-0.506C0.464,-0.467 0.488,-0.41 0.488,-0.334C0.488,-0.258 0.464,-0.201 0.418,-0.162C0.371,-0.123 0.305,-0.104 0.22,-0.104L0.161,-0.104ZM0.135,-0.08L0.22,-0.08C0.317,-0.08 0.391,-0.102 0.441,-0.147C0.49,-0.191 0.515,-0.253 0.515,-0.334C0.515,-0.415 0.49,-0.477 0.441,-0.521C0.391,-0.565 0.317,-0.587 0.22,-0.587L0.135,-0.587L0.135,-0.08ZM0.248,-0.19C0.298,-0.19 0.337,-0.202 0.364,-0.226C0.391,-0.249 0.405,-0.285 0.405,-0.334C0.405,-0.383 0.391,-0.419 0.364,-0.442C0.337,-0.465 0.298,-0.477 0.248,-0.477L0.248,-0.19Z" style="fill:rgb(170,170,170);fill-rule:nonzero;"/>
                </g>
                <g transform="matrix(50,0,0,50,236.926,1046.78)">
                    <path d="M0.035,-0.667L0.428,-0.667L0.428,-0.492L0.248,-0.492L0.248,-0.418L0.425,-0.418L0.425,-0.252L0.248,-0.252L0.248,-0.175L0.435,-0.175L0.435,0L0.035,0L0.035,-0.667ZM0.361,-0.08L0.361,-0.104L0.161,-0.104L0.161,-0.323L0.351,-0.323L0.351,-0.347L0.161,-0.347L0.161,-0.563L0.361,-0.563L0.361,-0.587L0.135,-0.587L0.135,-0.08L0.361,-0.08Z" style="fill:rgb(170,170,170);fill-rule:nonzero;"/>
                </g>
            </g>
            <g transform="matrix(0.603686,0,0,0.603686,-36.5809,624.918)">
                <g transform="matrix(241.379,0,0,241.379,100.602,1188)">
                    <path d="M0.554,-0.413C0.554,-0.367 0.546,-0.328 0.53,-0.296C0.514,-0.263 0.492,-0.237 0.465,-0.217C0.437,-0.197 0.405,-0.182 0.368,-0.173C0.331,-0.164 0.291,-0.159 0.248,-0.159L0.248,0L0.035,0L0.035,-0.667L0.248,-0.667C0.291,-0.667 0.331,-0.662 0.368,-0.653C0.405,-0.644 0.437,-0.629 0.465,-0.609C0.492,-0.589 0.514,-0.563 0.53,-0.531C0.546,-0.498 0.554,-0.459 0.554,-0.413ZM0.457,-0.413C0.457,-0.443 0.452,-0.469 0.442,-0.491C0.431,-0.513 0.417,-0.531 0.398,-0.545C0.379,-0.559 0.357,-0.57 0.332,-0.577C0.306,-0.584 0.278,-0.587 0.248,-0.587L0.135,-0.587L0.135,-0.08L0.161,-0.08L0.161,-0.239L0.248,-0.239C0.278,-0.239 0.306,-0.243 0.332,-0.25C0.357,-0.257 0.379,-0.267 0.398,-0.281C0.417,-0.295 0.431,-0.313 0.442,-0.335C0.452,-0.357 0.457,-0.383 0.457,-0.413ZM0.429,-0.413C0.429,-0.384 0.424,-0.36 0.414,-0.341C0.404,-0.322 0.391,-0.306 0.374,-0.295C0.357,-0.284 0.338,-0.276 0.317,-0.271C0.295,-0.266 0.272,-0.263 0.248,-0.263L0.161,-0.263L0.161,-0.563L0.248,-0.563C0.272,-0.563 0.295,-0.561 0.317,-0.556C0.338,-0.551 0.357,-0.542 0.374,-0.531C0.391,-0.52 0.404,-0.504 0.414,-0.485C0.424,-0.466 0.429,-0.442 0.429,-0.413ZM0.248,-0.339L0.257,-0.339C0.285,-0.339 0.305,-0.345 0.318,-0.359C0.33,-0.372 0.336,-0.39 0.336,-0.413C0.336,-0.436 0.33,-0.455 0.318,-0.468C0.305,-0.481 0.285,-0.487 0.257,-0.487L0.248,-0.487L0.248,-0.339Z" style="fill:rgb(145,166,180);fill-rule:nonzero;"/>
                </g>
                <g transform="matrix(241.379,0,0,241.379,237.947,1188)">
                    <path d="M0.233,-0.667L0.393,-0.667L0.646,0L0.436,0L0.414,-0.06L0.212,-0.06L0.19,0L-0.02,0L0.233,-0.667ZM0.358,-0.207L0.313,-0.324L0.268,-0.207L0.358,-0.207ZM0.129,-0.08L0.148,-0.13L0.478,-0.13L0.497,-0.08L0.525,-0.08L0.332,-0.587L0.294,-0.587L0.101,-0.08L0.129,-0.08ZM0.313,-0.563L0.469,-0.154L0.157,-0.154L0.313,-0.563Z" style="fill:rgb(145,166,180);fill-rule:nonzero;"/>
                </g>
                <g transform="matrix(241.379,0,0,241.379,389.051,1188)">
                    <path d="M0.035,-0.667L0.21,-0.667L0.394,-0.41L0.394,-0.667L0.603,-0.667L0.603,0L0.427,0L0.244,-0.256L0.244,0L0.035,0L0.035,-0.667ZM0.154,-0.08L0.154,-0.542L0.484,-0.08L0.51,-0.08L0.51,-0.587L0.484,-0.587L0.484,-0.125L0.154,-0.587L0.128,-0.587L0.128,-0.08L0.154,-0.08Z" style="fill:rgb(145,166,180);fill-rule:nonzero;"/>
                </g>
            </g>
        </g>
        <g transform="matrix(1,0,0,1,-2,120)">
            <g transform="matrix(1,0,0,1,9.98059,0)">
                <g transform="matrix(1.23713,0,0,1,-23.8563,29)">
                    <path d="M193.377,1004.38C193.377,989.164 188.49,974.568 179.791,963.807C171.093,953.046 159.295,947 146.993,947C146.991,947 146.988,947 146.986,947C134.684,947 122.886,953.046 114.188,963.807C105.489,974.568 100.602,989.164 100.602,1004.38C100.602,1018.78 100.602,1034.22 100.602,1048.62C100.602,1063.84 105.489,1078.43 114.188,1089.19C122.886,1099.95 134.684,1106 146.986,1106C146.988,1106 146.991,1106 146.993,1106C159.295,1106 171.093,1099.95 179.791,1089.19C188.49,1078.43 193.377,1063.84 193.377,1048.62C193.377,1034.22 193.377,1018.78 193.377,1004.38Z" style="fill:rgb(170,170,170);"/>
                </g>
                <g transform="matrix(0.174645,0,0,0.174645,129.105,894.989)">
                    <g transform="matrix(238.579,0,0,238.579,103.823,744.432)">
                        <path d="M0.204,-0.754L0.204,-0.107L0.426,-0.107L0.426,0L0.09,0L0.09,-0.754L0.204,-0.754Z" style="fill:rgb(234,230,227);fill-rule:nonzero;"/>
                    </g>
                </g>
            </g>
            <g transform="matrix(1,0,0,1,-0.0294449,0)">
                <g transform="matrix(1.23713,0,0,1,139.584,29)">
                    <path d="M193.377,1004.38C193.377,989.164 188.49,974.568 179.791,963.807C171.093,953.046 159.295,947 146.993,947C146.991,947 146.988,947 146.986,947C134.684,947 122.886,953.046 114.188,963.807C105.489,974.568 100.602,989.164 100.602,1004.38C100.602,1018.78 100.602,1034.22 100.602,1048.62C100.602,1063.84 105.489,1078.43 114.188,1089.19C122.886,1099.95 134.684,1106 146.986,1106C146.988,1106 146.991,1106 146.993,1106C159.295,1106 171.093,1099.95 179.791,1089.19C188.49,1078.43 193.377,1063.84 193.377,1048.62C193.377,1034.22 193.377,1018.78 193.377,1004.38Z" style="fill:rgb(170,170,170);"/>
                </g>
                <g transform="matrix(0.174645,0,0,0.174645,293.185,894.989)">
                    <g transform="matrix(241.379,0,0,241.379,103.823,744.432)">
                        <path d="M0.346,-0.321L0.579,0L0.44,0L0.225,-0.309L0.204,-0.309L0.204,0L0.09,0L0.09,-0.754L0.224,-0.754C0.323,-0.754 0.395,-0.735 0.439,-0.698C0.488,-0.656 0.513,-0.601 0.513,-0.533C0.513,-0.479 0.497,-0.433 0.467,-0.395C0.436,-0.357 0.396,-0.332 0.346,-0.321ZM0.204,-0.408L0.24,-0.408C0.348,-0.408 0.402,-0.449 0.402,-0.531C0.402,-0.608 0.349,-0.647 0.245,-0.647L0.204,-0.647L0.204,-0.408Z" style="fill:rgb(234,230,227);fill-rule:nonzero;"/>
                    </g>
                </g>
            </g>
        </g>
        <g transform="matrix(0.153274,0,0,0.153274,199.248,344.39)">
            <g transform="matrix(271.844,0,0,271.844,154.069,457.049)">
                <rect x="0.09" y="-0.754" width="0.114" height="0.754" style="fill:rgb(136,136,136);fill-rule:nonzero;"/>
            </g>
            <g transform="matrix(271.844,0,0,271.844,234.242,457.049)">
                <path d="M0.069,-0.476L0.18,-0.476L0.18,-0.432C0.218,-0.47 0.261,-0.489 0.31,-0.489C0.365,-0.489 0.408,-0.471 0.439,-0.437C0.466,-0.407 0.479,-0.359 0.479,-0.292L0.479,0L0.369,0L0.369,-0.266C0.369,-0.313 0.362,-0.345 0.349,-0.363C0.336,-0.381 0.313,-0.39 0.28,-0.39C0.243,-0.39 0.217,-0.378 0.202,-0.354C0.187,-0.33 0.18,-0.289 0.18,-0.229L0.18,0L0.069,0L0.069,-0.476Z" style="fill:rgb(136,136,136);fill-rule:nonzero;"/>
            </g>
        </g>
        <g transform="matrix(0.153274,0,0,0.153274,181.051,560.375)">
            <g transform="matrix(271.844,0,0,271.844,154.069,457.049)">
                <path d="M0.204,-0.306L0.204,0L0.09,0L0.09,-0.754L0.219,-0.754C0.282,-0.754 0.33,-0.75 0.362,-0.741C0.395,-0.732 0.424,-0.715 0.448,-0.691C0.492,-0.649 0.513,-0.595 0.513,-0.531C0.513,-0.462 0.49,-0.407 0.444,-0.367C0.398,-0.326 0.335,-0.306 0.257,-0.306L0.204,-0.306ZM0.204,-0.412L0.247,-0.412C0.351,-0.412 0.403,-0.452 0.403,-0.532C0.403,-0.61 0.349,-0.649 0.242,-0.649L0.204,-0.649L0.204,-0.412Z" style="fill:rgb(136,136,136);fill-rule:nonzero;"/>
            </g>
            <g transform="matrix(271.844,0,0,271.844,293.575,457.049)">
                <path d="M0.42,-0.476L0.53,-0.476L0.53,0L0.42,0L0.42,-0.05C0.375,-0.007 0.326,0.014 0.274,0.014C0.208,0.014 0.154,-0.01 0.111,-0.058C0.068,-0.106 0.047,-0.167 0.047,-0.239C0.047,-0.311 0.068,-0.37 0.111,-0.417C0.153,-0.465 0.207,-0.489 0.271,-0.489C0.326,-0.489 0.376,-0.466 0.42,-0.42L0.42,-0.476ZM0.159,-0.239C0.159,-0.194 0.171,-0.157 0.196,-0.128C0.221,-0.099 0.252,-0.084 0.291,-0.084C0.331,-0.084 0.364,-0.098 0.389,-0.126C0.414,-0.155 0.427,-0.192 0.427,-0.237C0.427,-0.281 0.414,-0.318 0.389,-0.347C0.364,-0.375 0.332,-0.39 0.292,-0.39C0.254,-0.39 0.222,-0.375 0.197,-0.347C0.172,-0.318 0.159,-0.282 0.159,-0.239Z" style="fill:rgb(136,136,136);fill-rule:nonzero;"/>
            </g>
            <g transform="matrix(271.844,0,0,271.844,456.575,457.049)">
                <path d="M0.069,-0.476L0.18,-0.476L0.18,-0.432C0.218,-0.47 0.261,-0.489 0.31,-0.489C0.365,-0.489 0.408,-0.471 0.439,-0.437C0.466,-0.407 0.479,-0.359 0.479,-0.292L0.479,0L0.369,0L0.369,-0.266C0.369,-0.313 0.362,-0.345 0.349,-0.363C0.336,-0.381 0.313,-0.39 0.28,-0.39C0.243,-0.39 0.217,-0.378 0.202,-0.354C0.187,-0.33 0.18,-0.289 0.18,-0.229L0.18,0L0.069,0L0.069,-0.476Z" style="fill:rgb(136,136,136);fill-rule:nonzero;"/>
            </g>
        </g>
        <g transform="matrix(1.23713,0,0,1,57.864,-575.169)">
            <path d="M193.377,1004.38C193.377,989.164 188.49,974.568 179.791,963.807C171.093,953.046 159.295,947 146.993,947C146.991,947 146.988,947 146.986,947C134.684,947 122.886,953.046 114.188,963.807C105.489,974.568 100.602,989.164 100.602,1004.38C100.602,1018.78 100.602,1034.22 100.602,1048.62C100.602,1063.84 105.489,1078.43 114.188,1089.19C122.886,1099.95 134.684,1106 146.986,1106C146.988,1106 146.991,1106 146.993,1106C159.295,1106 171.093,1099.95 179.791,1089.19C188.49,1078.43 193.377,1063.84 193.377,1048.62C193.377,1034.22 193.377,1018.78 193.377,1004.38Z" style="fill:none;stroke:rgb(170,170,170);stroke-width:3.55px;"/>
        </g>
        <g transform="matrix(2.52157,0,0,3.9971,90.1697,43.9681)">
            <path d="M30.061,213.961L90.908,213.961" style="fill:none;stroke:rgb(170,170,170);stroke-width:1px;"/>
        </g>
    </g>
</svg>
