<?xml version="1.0" encoding="UTF-8" standalone="no"?>
<!DOCTYPE svg PUBLIC "-//W3C//DTD SVG 1.1//EN" "http://www.w3.org/Graphics/SVG/1.1/DTD/svg11.dtd">
<svg width="100%" height="100%" viewBox="0 0 150 380" version="1.1" xmlns="http://www.w3.org/2000/svg" xmlns:xlink="http://www.w3.org/1999/xlink" xml:space="preserve" xmlns:serif="http://www.serif.com/" style="fill-rule:evenodd;clip-rule:evenodd;stroke-linecap:round;stroke-linejoin:round;stroke-miterlimit:1.5;">
    <g id="background" transform="matrix(1,0,0,1,15,0)">
        <g transform="matrix(0.312808,0,0,0.250181,-15,0)">
            <rect x="0" y="0" width="479.528" height="1518.9" style="fill:rgb(234,230,227);"/>
        </g>
        <g transform="matrix(0.312808,0,0,0.250181,-15,-10.9804)">
            <g transform="matrix(1,0,0,1,0,39.1931)">
                <path d="M0,32L479.528,32" style="fill:none;stroke:rgb(170,170,170);stroke-width:1.84px;"/>
            </g>
            <g transform="matrix(1,0,0,1,0,78.3863)">
                <path d="M0,32L479.528,32" style="fill:none;stroke:rgb(170,170,170);stroke-width:1.84px;"/>
            </g>
            <g transform="matrix(1,0,0,1,0,117.579)">
                <path d="M0,32L479.528,32" style="fill:none;stroke:rgb(170,170,170);stroke-width:1.84px;"/>
            </g>
            <g transform="matrix(1,0,0,1,0,156.773)">
                <path d="M0,32L479.528,32" style="fill:none;stroke:rgb(170,170,170);stroke-width:1.84px;"/>
            </g>
        </g>
        <g transform="matrix(0.250181,0,0,0.250181,39.0439,86.0907)">
            <g transform="matrix(0.869021,0,0,0.869021,241.926,574.305)">
                <circle cx="-182" cy="1072" r="397" style="fill:none;stroke:rgb(170,170,170);stroke-width:2.4px;"/>
            </g>
            <g transform="matrix(0.994966,0,0,0.994966,264.848,439.293)">
                <circle cx="-182" cy="1072" r="397" style="fill:none;stroke:rgb(170,170,170);stroke-width:2.09px;"/>
            </g>
            <g transform="matrix(1.11083,0,0,1.11083,285.935,313.087)">
                <circle cx="-182" cy="1072" r="397" style="fill:none;stroke:rgb(170,170,170);stroke-width:1.88px;"/>
            </g>
            <g transform="matrix(1.2267,0,0,1.2267,307.023,186.88)">
                <circle cx="-182" cy="1072" r="397" style="fill:none;stroke:rgb(170,170,170);stroke-width:1.7px;"/>
            </g>
        </g>
        <g transform="matrix(0.288996,0,0,0.288996,11.1232,62.3544)">
            <g transform="matrix(50,0,0,50,78.576,1046.78)">
                <path d="M0.146,-0.333C0.146,-0.365 0.152,-0.395 0.163,-0.423C0.173,-0.451 0.189,-0.475 0.209,-0.496C0.229,-0.517 0.253,-0.533 0.282,-0.545C0.311,-0.557 0.343,-0.563 0.378,-0.563C0.395,-0.563 0.411,-0.562 0.425,-0.56C0.438,-0.557 0.45,-0.554 0.459,-0.551C0.47,-0.548 0.48,-0.544 0.488,-0.539L0.502,-0.563C0.491,-0.568 0.48,-0.572 0.468,-0.576C0.457,-0.579 0.444,-0.582 0.429,-0.585C0.414,-0.588 0.397,-0.589 0.378,-0.589C0.344,-0.589 0.312,-0.583 0.281,-0.571C0.25,-0.559 0.222,-0.542 0.199,-0.52C0.175,-0.497 0.156,-0.47 0.142,-0.439C0.127,-0.407 0.12,-0.372 0.12,-0.333C0.12,-0.294 0.127,-0.258 0.141,-0.227C0.154,-0.196 0.173,-0.169 0.197,-0.147C0.221,-0.124 0.249,-0.107 0.281,-0.095C0.313,-0.083 0.347,-0.077 0.383,-0.077C0.403,-0.077 0.421,-0.079 0.437,-0.082C0.453,-0.085 0.467,-0.089 0.478,-0.093C0.491,-0.098 0.502,-0.103 0.512,-0.109L0.498,-0.133C0.489,-0.127 0.479,-0.122 0.468,-0.118C0.458,-0.114 0.446,-0.111 0.432,-0.108C0.418,-0.105 0.402,-0.103 0.383,-0.103C0.346,-0.103 0.313,-0.109 0.284,-0.121C0.255,-0.133 0.23,-0.149 0.21,-0.17C0.189,-0.191 0.173,-0.215 0.163,-0.243C0.152,-0.271 0.146,-0.301 0.146,-0.333ZM0.02,-0.333C0.02,-0.386 0.029,-0.435 0.048,-0.478C0.067,-0.521 0.092,-0.557 0.124,-0.588C0.156,-0.619 0.193,-0.642 0.236,-0.659C0.279,-0.675 0.324,-0.683 0.372,-0.683C0.41,-0.683 0.444,-0.679 0.474,-0.672C0.503,-0.665 0.529,-0.656 0.55,-0.647C0.575,-0.636 0.596,-0.625 0.614,-0.612L0.509,-0.427C0.498,-0.435 0.487,-0.443 0.474,-0.45C0.463,-0.455 0.449,-0.46 0.434,-0.466C0.418,-0.471 0.4,-0.473 0.38,-0.473C0.359,-0.473 0.34,-0.469 0.323,-0.462C0.306,-0.455 0.291,-0.445 0.278,-0.432C0.265,-0.419 0.254,-0.405 0.247,-0.388C0.24,-0.371 0.236,-0.352 0.236,-0.333C0.236,-0.314 0.24,-0.296 0.248,-0.279C0.255,-0.262 0.266,-0.247 0.279,-0.234C0.292,-0.221 0.308,-0.211 0.326,-0.204C0.344,-0.197 0.364,-0.193 0.385,-0.193C0.406,-0.193 0.425,-0.196 0.442,-0.201C0.459,-0.206 0.473,-0.212 0.484,-0.219C0.497,-0.226 0.509,-0.235 0.519,-0.245L0.624,-0.06C0.606,-0.045 0.585,-0.032 0.56,-0.021C0.539,-0.012 0.513,-0.003 0.483,0.005C0.453,0.013 0.419,0.017 0.38,0.017C0.328,0.017 0.28,0.009 0.236,-0.009C0.192,-0.026 0.154,-0.049 0.122,-0.08C0.09,-0.111 0.065,-0.148 0.047,-0.191C0.029,-0.234 0.02,-0.281 0.02,-0.333Z" style="fill:rgb(170,170,170);fill-rule:nonzero;"/>
            </g>
            <g transform="matrix(50,0,0,50,109.276,1046.78)">
                <path d="M0.02,-0.333C0.02,-0.381 0.029,-0.426 0.048,-0.469C0.066,-0.512 0.091,-0.549 0.123,-0.581C0.154,-0.612 0.191,-0.637 0.234,-0.656C0.277,-0.674 0.322,-0.683 0.37,-0.683C0.418,-0.683 0.463,-0.674 0.506,-0.656C0.549,-0.637 0.586,-0.612 0.618,-0.581C0.649,-0.549 0.674,-0.512 0.693,-0.469C0.711,-0.426 0.72,-0.381 0.72,-0.333C0.72,-0.285 0.711,-0.24 0.693,-0.197C0.674,-0.154 0.649,-0.117 0.618,-0.086C0.586,-0.054 0.549,-0.029 0.506,-0.011C0.463,0.008 0.418,0.017 0.37,0.017C0.322,0.017 0.277,0.008 0.234,-0.011C0.191,-0.029 0.154,-0.054 0.123,-0.086C0.091,-0.117 0.066,-0.154 0.048,-0.197C0.029,-0.24 0.02,-0.285 0.02,-0.333ZM0.114,-0.333C0.114,-0.298 0.121,-0.265 0.134,-0.234C0.147,-0.203 0.166,-0.175 0.189,-0.152C0.212,-0.129 0.24,-0.11 0.271,-0.097C0.302,-0.084 0.335,-0.077 0.37,-0.077C0.405,-0.077 0.439,-0.084 0.47,-0.097C0.501,-0.11 0.528,-0.129 0.551,-0.152C0.574,-0.175 0.593,-0.203 0.606,-0.234C0.619,-0.265 0.626,-0.298 0.626,-0.333C0.626,-0.368 0.619,-0.401 0.606,-0.433C0.593,-0.464 0.574,-0.491 0.551,-0.514C0.528,-0.537 0.501,-0.556 0.47,-0.569C0.439,-0.582 0.405,-0.589 0.37,-0.589C0.335,-0.589 0.302,-0.582 0.271,-0.569C0.24,-0.556 0.212,-0.537 0.189,-0.514C0.166,-0.491 0.147,-0.464 0.134,-0.433C0.121,-0.401 0.114,-0.368 0.114,-0.333ZM0.23,-0.333C0.23,-0.314 0.234,-0.296 0.241,-0.279C0.248,-0.262 0.258,-0.247 0.271,-0.234C0.284,-0.221 0.299,-0.211 0.316,-0.204C0.333,-0.197 0.351,-0.193 0.37,-0.193C0.389,-0.193 0.408,-0.197 0.425,-0.204C0.442,-0.211 0.456,-0.221 0.469,-0.234C0.482,-0.247 0.492,-0.262 0.499,-0.279C0.506,-0.296 0.51,-0.314 0.51,-0.333C0.51,-0.352 0.506,-0.371 0.499,-0.388C0.492,-0.405 0.482,-0.419 0.469,-0.432C0.456,-0.445 0.442,-0.455 0.425,-0.462C0.408,-0.469 0.389,-0.473 0.37,-0.473C0.351,-0.473 0.333,-0.469 0.316,-0.462C0.299,-0.455 0.284,-0.445 0.271,-0.432C0.258,-0.419 0.248,-0.405 0.241,-0.388C0.234,-0.371 0.23,-0.352 0.23,-0.333ZM0.37,-0.103C0.338,-0.103 0.308,-0.109 0.281,-0.121C0.253,-0.133 0.229,-0.15 0.208,-0.171C0.187,-0.192 0.17,-0.216 0.158,-0.244C0.146,-0.271 0.14,-0.301 0.14,-0.333C0.14,-0.365 0.146,-0.395 0.158,-0.423C0.17,-0.45 0.187,-0.474 0.208,-0.496C0.229,-0.517 0.253,-0.533 0.281,-0.545C0.308,-0.557 0.338,-0.563 0.37,-0.563C0.402,-0.563 0.432,-0.557 0.46,-0.545C0.487,-0.533 0.511,-0.517 0.533,-0.496C0.554,-0.474 0.57,-0.45 0.582,-0.423C0.594,-0.395 0.6,-0.365 0.6,-0.333C0.6,-0.301 0.594,-0.271 0.582,-0.244C0.57,-0.216 0.554,-0.192 0.533,-0.171C0.511,-0.15 0.487,-0.133 0.46,-0.121C0.432,-0.109 0.402,-0.103 0.37,-0.103Z" style="fill:rgb(170,170,170);fill-rule:nonzero;"/>
            </g>
            <g transform="matrix(50,0,0,50,146.276,1046.78)">
                <path d="M0.035,-0.667L0.257,-0.667L0.257,-0.175L0.441,-0.175L0.441,-0L0.035,-0L0.035,-0.667ZM0.385,-0.08L0.385,-0.104L0.161,-0.104L0.161,-0.587L0.135,-0.587L0.135,-0.08L0.385,-0.08Z" style="fill:rgb(170,170,170);fill-rule:nonzero;"/>
            </g>
            <g transform="matrix(50,0,0,50,168.326,1046.78)">
                <path d="M0.035,-0.667L0.257,-0.667L0.257,-0.175L0.441,-0.175L0.441,-0L0.035,-0L0.035,-0.667ZM0.385,-0.08L0.385,-0.104L0.161,-0.104L0.161,-0.587L0.135,-0.587L0.135,-0.08L0.385,-0.08Z" style="fill:rgb(170,170,170);fill-rule:nonzero;"/>
            </g>
            <g transform="matrix(50,0,0,50,190.376,1046.78)">
                <path d="M0.035,-0.667L0.261,-0.667L0.261,-0L0.035,-0L0.035,-0.667ZM0.161,-0.08L0.161,-0.587L0.135,-0.587L0.135,-0.08L0.161,-0.08Z" style="fill:rgb(170,170,170);fill-rule:nonzero;"/>
            </g>
            <g transform="matrix(50,0,0,50,205.176,1046.78)">
                <path d="M0.035,-0L0.035,-0.667L0.22,-0.667C0.283,-0.667 0.339,-0.66 0.388,-0.646C0.437,-0.632 0.478,-0.611 0.512,-0.583C0.545,-0.555 0.571,-0.52 0.589,-0.479C0.606,-0.437 0.615,-0.389 0.615,-0.334C0.615,-0.279 0.606,-0.231 0.589,-0.19C0.571,-0.148 0.545,-0.113 0.512,-0.085C0.478,-0.057 0.437,-0.036 0.388,-0.022C0.339,-0.007 0.283,-0 0.22,-0L0.035,-0ZM0.161,-0.104L0.161,-0.563L0.22,-0.563C0.305,-0.563 0.371,-0.544 0.418,-0.506C0.464,-0.467 0.488,-0.41 0.488,-0.334C0.488,-0.258 0.464,-0.201 0.418,-0.162C0.371,-0.123 0.305,-0.104 0.22,-0.104L0.161,-0.104ZM0.135,-0.08L0.22,-0.08C0.317,-0.08 0.391,-0.102 0.441,-0.147C0.49,-0.191 0.515,-0.253 0.515,-0.334C0.515,-0.415 0.49,-0.477 0.441,-0.521C0.391,-0.565 0.317,-0.587 0.22,-0.587L0.135,-0.587L0.135,-0.08ZM0.248,-0.19C0.298,-0.19 0.337,-0.202 0.364,-0.226C0.391,-0.249 0.405,-0.285 0.405,-0.334C0.405,-0.383 0.391,-0.419 0.364,-0.442C0.337,-0.465 0.298,-0.477 0.248,-0.477L0.248,-0.19Z" style="fill:rgb(170,170,170);fill-rule:nonzero;"/>
            </g>
            <g transform="matrix(50,0,0,50,236.926,1046.78)">
                <path d="M0.035,-0.667L0.428,-0.667L0.428,-0.492L0.248,-0.492L0.248,-0.418L0.425,-0.418L0.425,-0.252L0.248,-0.252L0.248,-0.175L0.435,-0.175L0.435,-0L0.035,-0L0.035,-0.667ZM0.361,-0.08L0.361,-0.104L0.161,-0.104L0.161,-0.323L0.351,-0.323L0.351,-0.347L0.161,-0.347L0.161,-0.563L0.361,-0.563L0.361,-0.587L0.135,-0.587L0.135,-0.08L0.361,-0.08Z" style="fill:rgb(170,170,170);fill-rule:nonzero;"/>
            </g>
        </g>
        <g transform="matrix(0.250181,0,0,0.250181,1.64064,-19.7542)">
            <g transform="matrix(1,0,0,1,-1,8)">
                <g transform="matrix(1,0,0,1,6.20594,-24.898)">
                    <circle cx="187.171" cy="215.865" r="92.774" style="fill:rgb(147,72,103);"/>
                </g>
                <g transform="matrix(1,0,0,1,98.9803,-24.898)">
                    <circle cx="187.171" cy="215.865" r="92.774" style="fill:rgb(93,128,125);"/>
                </g>
            </g>
            <g transform="matrix(1,0,0,1,0,-4)">
                <g transform="matrix(1,0,0,1,6.20594,-24.898)">
                    <circle cx="187.171" cy="215.865" r="92.774" style="fill:rgb(212,124,160);"/>
                </g>
                <g transform="matrix(1,0,0,1,98.9803,-24.898)">
                    <circle cx="187.171" cy="215.865" r="92.774" style="fill:rgb(145,180,177);"/>
                </g>
            </g>
        </g>
        <g transform="matrix(0.0949447,0,0,0.0949447,31.2537,-78.1297)">
            <g transform="matrix(241.379,0,0,241.379,100.602,1188)">
                <path d="M0.035,-0.667L0.428,-0.667L0.428,-0.492L0.248,-0.492L0.248,-0.418L0.425,-0.418L0.425,-0.252L0.248,-0.252L0.248,-0.175L0.435,-0.175L0.435,-0L0.035,-0L0.035,-0.667ZM0.361,-0.08L0.361,-0.104L0.161,-0.104L0.161,-0.323L0.351,-0.323L0.351,-0.347L0.161,-0.347L0.161,-0.563L0.361,-0.563L0.361,-0.587L0.135,-0.587L0.135,-0.08L0.361,-0.08Z" style="fill:rgb(234,230,227);fill-rule:nonzero;"/>
            </g>
            <g transform="matrix(241.379,0,0,241.379,211.637,1188)">
                <path d="M0.035,-0.667L0.21,-0.667L0.394,-0.41L0.394,-0.667L0.603,-0.667L0.603,-0L0.427,-0L0.244,-0.256L0.244,-0L0.035,-0L0.035,-0.667ZM0.154,-0.08L0.154,-0.542L0.484,-0.08L0.51,-0.08L0.51,-0.587L0.484,-0.587L0.484,-0.125L0.154,-0.587L0.128,-0.587L0.128,-0.08L0.154,-0.08Z" style="fill:rgb(234,230,227);fill-rule:nonzero;"/>
            </g>
            <g transform="matrix(241.379,0,0,241.379,365.637,1188)">
                <path d="M0.213,-0.667L0.326,-0.377L0.44,-0.667L0.673,-0.667L0.413,-0L0.24,-0L-0.02,-0.667L0.213,-0.667ZM0.337,-0.08L0.535,-0.587L0.507,-0.587L0.326,-0.126L0.146,-0.587L0.118,-0.587L0.316,-0.08L0.337,-0.08Z" style="fill:rgb(234,230,227);fill-rule:nonzero;"/>
            </g>
        </g>
    </g>
    <g id="panel" transform="matrix(0.250181,0,0,0.250181,15.0156,0)">
        <g transform="matrix(1,0,0,1,-79.3116,-88.2278)">
            <g transform="matrix(0.153274,0,0,0.153274,469.851,274.966)">
                <g transform="matrix(217.318,0,0,217.318,154.069,457.049)">
                    <path d="M0.478,-0.393L0.79,-0.393L0.79,-0.368C0.79,-0.311 0.783,-0.261 0.77,-0.217C0.757,-0.177 0.735,-0.139 0.704,-0.104C0.634,-0.025 0.545,0.014 0.437,0.014C0.331,0.014 0.241,-0.024 0.166,-0.1C0.09,-0.177 0.053,-0.268 0.053,-0.375C0.053,-0.485 0.091,-0.578 0.167,-0.654C0.244,-0.73 0.337,-0.769 0.447,-0.769C0.506,-0.769 0.561,-0.757 0.612,-0.732C0.661,-0.708 0.709,-0.669 0.756,-0.615L0.675,-0.538C0.613,-0.62 0.538,-0.661 0.449,-0.661C0.369,-0.661 0.302,-0.634 0.248,-0.579C0.194,-0.525 0.167,-0.457 0.167,-0.375C0.167,-0.292 0.197,-0.222 0.257,-0.168C0.314,-0.118 0.375,-0.092 0.44,-0.092C0.496,-0.092 0.547,-0.111 0.591,-0.149C0.636,-0.187 0.661,-0.233 0.666,-0.286L0.478,-0.286L0.478,-0.393Z" style="fill:rgb(136,136,136);fill-rule:nonzero;"/>
                </g>
                <g transform="matrix(217.318,0,0,217.318,329.685,457.049)">
                    <path d="M0.533,-0.183L0.21,-0.183L0.126,-0L0.004,-0L0.377,-0.801L0.737,-0L0.612,-0L0.533,-0.183ZM0.487,-0.29L0.375,-0.546L0.258,-0.29L0.487,-0.29Z" style="fill:rgb(136,136,136);fill-rule:nonzero;"/>
                </g>
                <g transform="matrix(217.318,0,0,217.318,481.531,457.049)">
                    <path d="M0.298,-0.647L0.298,-0L0.185,-0L0.185,-0.647L0.011,-0.647L0.011,-0.754L0.471,-0.754L0.471,-0.647L0.298,-0.647Z" style="fill:rgb(136,136,136);fill-rule:nonzero;"/>
                </g>
                <g transform="matrix(217.318,0,0,217.318,586.37,457.049)">
                    <path d="M0.506,-0.647L0.204,-0.647L0.204,-0.466L0.498,-0.466L0.498,-0.359L0.204,-0.359L0.204,-0.107L0.506,-0.107L0.506,-0L0.09,-0L0.09,-0.754L0.506,-0.754L0.506,-0.647Z" style="fill:rgb(136,136,136);fill-rule:nonzero;"/>
                </g>
            </g>
            <g transform="matrix(0.153274,0,0,0.153274,476.734,402.257)">
                <g transform="matrix(217.318,0,0,217.318,154.069,457.049)">
                    <path d="M0.298,-0.647L0.298,-0L0.185,-0L0.185,-0.647L0.011,-0.647L0.011,-0.754L0.471,-0.754L0.471,-0.647L0.298,-0.647Z" style="fill:rgb(136,136,136);fill-rule:nonzero;"/>
                </g>
                <g transform="matrix(217.318,0,0,217.318,258.908,457.049)">
                    <path d="M0.346,-0.321L0.579,-0L0.44,-0L0.225,-0.309L0.204,-0.309L0.204,-0L0.09,-0L0.09,-0.754L0.224,-0.754C0.323,-0.754 0.395,-0.735 0.439,-0.698C0.488,-0.656 0.513,-0.601 0.513,-0.533C0.513,-0.479 0.497,-0.433 0.467,-0.395C0.436,-0.357 0.396,-0.332 0.346,-0.321ZM0.204,-0.408L0.24,-0.408C0.348,-0.408 0.402,-0.449 0.402,-0.531C0.402,-0.608 0.349,-0.647 0.245,-0.647L0.204,-0.647L0.204,-0.408Z" style="fill:rgb(136,136,136);fill-rule:nonzero;"/>
                </g>
                <g transform="matrix(217.318,0,0,217.318,389.744,457.049)">
                    <rect x="0.09" y="-0.754" width="0.114" height="0.754" style="fill:rgb(136,136,136);fill-rule:nonzero;"/>
                </g>
                <g transform="matrix(217.318,0,0,217.318,453.836,457.049)">
                    <path d="M0.478,-0.393L0.79,-0.393L0.79,-0.368C0.79,-0.311 0.783,-0.261 0.77,-0.217C0.757,-0.177 0.735,-0.139 0.704,-0.104C0.634,-0.025 0.545,0.014 0.437,0.014C0.331,0.014 0.241,-0.024 0.166,-0.1C0.09,-0.177 0.053,-0.268 0.053,-0.375C0.053,-0.485 0.091,-0.578 0.167,-0.654C0.244,-0.73 0.337,-0.769 0.447,-0.769C0.506,-0.769 0.561,-0.757 0.612,-0.732C0.661,-0.708 0.709,-0.669 0.756,-0.615L0.675,-0.538C0.613,-0.62 0.538,-0.661 0.449,-0.661C0.369,-0.661 0.302,-0.634 0.248,-0.579C0.194,-0.525 0.167,-0.457 0.167,-0.375C0.167,-0.292 0.197,-0.222 0.257,-0.168C0.314,-0.118 0.375,-0.092 0.44,-0.092C0.496,-0.092 0.547,-0.111 0.591,-0.149C0.636,-0.187 0.661,-0.233 0.666,-0.286L0.478,-0.286L0.478,-0.393Z" style="fill:rgb(136,136,136);fill-rule:nonzero;"/>
                </g>
            </g>
        </g>
        <g transform="matrix(6.77894,0,0,3.9971,108.396,-320.635)">
            <path d="M19.476,157.105L51.476,157.105" style="fill:none;stroke:rgb(136,136,136);stroke-width:0.6px;"/>
        </g>
        <g transform="matrix(1,0,0,1,-23.9826,-51.3447)">
            <g transform="matrix(0.153274,0,0,0.153274,24.5852,224.185)">
                <g transform="matrix(217.318,0,0,217.318,154.069,457.049)">
                    <rect x="0.09" y="-0.754" width="0.114" height="0.754" style="fill:rgb(136,136,136);fill-rule:nonzero;"/>
                </g>
                <g transform="matrix(217.318,0,0,217.318,218.161,457.049)">
                    <path d="M0.09,-0L0.09,-0.805L0.64,-0.23L0.64,-0.754L0.754,-0.754L0.754,0.046L0.204,-0.528L0.204,-0L0.09,-0Z" style="fill:rgb(136,136,136);fill-rule:nonzero;"/>
                </g>
            </g>
            <g transform="matrix(1.23713,0,0,1,-114.728,-691.376)">
                <path d="M193.377,1004.38C193.377,989.164 188.49,974.568 179.791,963.807C171.093,953.046 159.295,947 146.993,947C146.991,947 146.988,947 146.986,947C134.684,947 122.886,953.046 114.188,963.807C105.489,974.568 100.602,989.164 100.602,1004.38C100.602,1018.78 100.602,1034.22 100.602,1048.62C100.602,1063.84 105.489,1078.43 114.188,1089.19C122.886,1099.95 134.684,1106 146.986,1106C146.988,1106 146.991,1106 146.993,1106C159.295,1106 171.093,1099.95 179.791,1089.19C188.49,1078.43 193.377,1063.84 193.377,1048.62C193.377,1034.22 193.377,1018.78 193.377,1004.38Z" style="fill:none;stroke:rgb(136,136,136);stroke-width:3.55px;"/>
            </g>
        </g>
        <g transform="matrix(1,0,0,1,-3.9971,55.9594)">
            <g transform="matrix(7.57526e-17,-1.23713,1.16032,7.10492e-17,-751.763,632.081)">
                <path d="M193.377,996.454C193.377,983.338 188.49,970.759 179.791,961.485C171.093,952.21 159.295,947 146.993,947C146.991,947 146.988,947 146.986,947C134.684,947 122.886,952.21 114.188,961.485C105.489,970.759 100.602,983.338 100.602,996.454C100.602,1015.58 100.602,1037.42 100.602,1056.55C100.602,1069.66 105.489,1082.24 114.188,1091.52C122.886,1100.79 134.684,1106 146.986,1106C146.988,1106 146.991,1106 146.993,1106C159.295,1106 171.093,1100.79 179.791,1091.52C188.49,1082.24 193.377,1069.66 193.377,1056.55C193.377,1037.42 193.377,1015.58 193.377,996.454Z" style="fill:rgb(136,136,136);"/>
            </g>
            <g transform="matrix(0.153274,0,0,0.153274,335.307,393.527)">
                <g transform="matrix(217.318,0,0,217.318,154.069,457.049)">
                    <path d="M0.533,-0.183L0.21,-0.183L0.126,-0L0.004,-0L0.377,-0.801L0.737,-0L0.612,-0L0.533,-0.183ZM0.487,-0.29L0.375,-0.546L0.258,-0.29L0.487,-0.29Z" style="fill:rgb(234,230,227);fill-rule:nonzero;"/>
                </g>
            </g>
            <g transform="matrix(1.49774,0,0,1.49774,-332.402,-348.936)">
                <g transform="matrix(1,0,0,1,3.0829,4.40549)">
                    <g transform="matrix(3.9971,0,0,3.9971,58.2063,-8.27849)">
                        <circle cx="53.5" cy="128.5" r="2.5" style="fill:rgb(68,68,68);"/>
                    </g>
                    <g transform="matrix(1,0,0,1,-2.66876,0)">
                        <g transform="matrix(3.9971,0,0,3.9971,76.2418,-3.93103)">
                            <g transform="matrix(6.25,0,0,6.25,47.7946,129.034)">
                                <rect x="0.056" y="-0.328" width="0.27" height="0.137" style="fill:rgb(234,230,227);fill-rule:nonzero;"/>
                            </g>
                        </g>
                        <g transform="matrix(3.9971,0,0,3.9971,81.5793,-3.93103)">
                            <g transform="matrix(6.25,0,0,6.25,47.7946,129.034)">
                                <rect x="0.056" y="-0.328" width="0.27" height="0.137" style="fill:rgb(234,230,227);fill-rule:nonzero;"/>
                            </g>
                        </g>
                    </g>
                </g>
                <g transform="matrix(1,0,0,1,-7.59212,4.40549)">
                    <g transform="matrix(3.9971,0,0,3.9971,135.742,-8.27849)">
                        <circle cx="53.5" cy="128.5" r="2.5" style="fill:rgb(68,68,68);"/>
                    </g>
                    <g transform="matrix(3.9971,0,0,3.9971,151.259,-1.58898)">
                        <g transform="matrix(6.25,0,0,6.25,47.7946,129.034)">
                            <path d="M0.229,-0.103L0.229,-0.289L0.042,-0.289L0.042,-0.417L0.229,-0.417L0.229,-0.604L0.354,-0.604L0.354,-0.417L0.542,-0.417L0.542,-0.289L0.354,-0.289L0.354,-0.103L0.229,-0.103Z" style="fill:rgb(234,230,227);fill-rule:nonzero;"/>
                        </g>
                    </g>
                </g>
            </g>
            <g transform="matrix(-8.05968,9.87026e-16,-4.89503e-16,-3.9971,424.712,1078.2)">
                <path d="M19.476,157.105L51.476,157.105" style="fill:none;stroke:rgb(136,136,136);stroke-width:0.52px;"/>
            </g>
        </g>
        <g transform="matrix(1,0,0,1,-3.9971,247.82)">
            <g transform="matrix(7.57526e-17,-1.23713,1.16032,7.10492e-17,-751.763,632.081)">
                <path d="M193.377,996.454C193.377,983.338 188.49,970.759 179.791,961.485C171.093,952.21 159.295,947 146.993,947C146.991,947 146.988,947 146.986,947C134.684,947 122.886,952.21 114.188,961.485C105.489,970.759 100.602,983.338 100.602,996.454C100.602,1015.58 100.602,1037.42 100.602,1056.55C100.602,1069.66 105.489,1082.24 114.188,1091.52C122.886,1100.79 134.684,1106 146.986,1106C146.988,1106 146.991,1106 146.993,1106C159.295,1106 171.093,1100.79 179.791,1091.52C188.49,1082.24 193.377,1069.66 193.377,1056.55C193.377,1037.42 193.377,1015.58 193.377,996.454Z" style="fill:rgb(136,136,136);"/>
            </g>
            <g transform="matrix(0.153274,0,0,0.153274,335.307,393.527)">
                <g transform="matrix(217.318,0,0,217.318,154.069,457.049)">
                    <path d="M0.09,-0L0.09,-0.754L0.249,-0.754C0.324,-0.754 0.384,-0.746 0.428,-0.731C0.475,-0.717 0.518,-0.692 0.557,-0.657C0.634,-0.586 0.673,-0.493 0.673,-0.377C0.673,-0.261 0.633,-0.167 0.552,-0.096C0.511,-0.06 0.468,-0.035 0.424,-0.021C0.382,-0.007 0.323,-0 0.247,-0L0.09,-0ZM0.204,-0.107L0.255,-0.107C0.306,-0.107 0.349,-0.112 0.383,-0.123C0.417,-0.134 0.447,-0.153 0.475,-0.177C0.531,-0.228 0.559,-0.295 0.559,-0.377C0.559,-0.46 0.531,-0.527 0.476,-0.578C0.426,-0.624 0.352,-0.647 0.255,-0.647L0.204,-0.647L0.204,-0.107Z" style="fill:rgb(234,230,227);fill-rule:nonzero;"/>
                </g>
            </g>
            <g transform="matrix(1.49774,0,0,1.49774,-332.402,-348.936)">
                <g transform="matrix(1,0,0,1,3.0829,4.40549)">
                    <g transform="matrix(3.9971,0,0,3.9971,58.2063,-8.27849)">
                        <circle cx="53.5" cy="128.5" r="2.5" style="fill:rgb(68,68,68);"/>
                    </g>
                    <g transform="matrix(1,0,0,1,-2.66876,0)">
                        <g transform="matrix(3.9971,0,0,3.9971,76.2418,-3.93103)">
                            <g transform="matrix(6.25,0,0,6.25,47.7946,129.034)">
                                <rect x="0.056" y="-0.328" width="0.27" height="0.137" style="fill:rgb(234,230,227);fill-rule:nonzero;"/>
                            </g>
                        </g>
                        <g transform="matrix(3.9971,0,0,3.9971,81.5793,-3.93103)">
                            <g transform="matrix(6.25,0,0,6.25,47.7946,129.034)">
                                <rect x="0.056" y="-0.328" width="0.27" height="0.137" style="fill:rgb(234,230,227);fill-rule:nonzero;"/>
                            </g>
                        </g>
                    </g>
                </g>
                <g transform="matrix(1,0,0,1,-7.59212,4.40549)">
                    <g transform="matrix(3.9971,0,0,3.9971,135.742,-8.27849)">
                        <circle cx="53.5" cy="128.5" r="2.5" style="fill:rgb(68,68,68);"/>
                    </g>
                    <g transform="matrix(3.9971,0,0,3.9971,151.259,-1.58898)">
                        <g transform="matrix(6.25,0,0,6.25,47.7946,129.034)">
                            <path d="M0.229,-0.103L0.229,-0.289L0.042,-0.289L0.042,-0.417L0.229,-0.417L0.229,-0.604L0.354,-0.604L0.354,-0.417L0.542,-0.417L0.542,-0.289L0.354,-0.289L0.354,-0.103L0.229,-0.103Z" style="fill:rgb(234,230,227);fill-rule:nonzero;"/>
                        </g>
                    </g>
                </g>
            </g>
            <g transform="matrix(-8.05968,9.87026e-16,-4.89503e-16,-3.9971,424.712,1078.2)">
                <path d="M19.476,157.105L51.476,157.105" style="fill:none;stroke:rgb(136,136,136);stroke-width:0.52px;"/>
            </g>
        </g>
        <g transform="matrix(1,0,0,1,-3.9971,439.69)">
            <g transform="matrix(7.57526e-17,-1.23713,1.16032,7.10492e-17,-751.763,632.081)">
                <path d="M193.377,996.454C193.377,983.338 188.49,970.759 179.791,961.485C171.093,952.21 159.295,947 146.993,947C146.991,947 146.988,947 146.986,947C134.684,947 122.886,952.21 114.188,961.485C105.489,970.759 100.602,983.338 100.602,996.454C100.602,1015.58 100.602,1037.42 100.602,1056.55C100.602,1069.66 105.489,1082.24 114.188,1091.52C122.886,1100.79 134.684,1106 146.986,1106C146.988,1106 146.991,1106 146.993,1106C159.295,1106 171.093,1100.79 179.791,1091.52C188.49,1082.24 193.377,1069.66 193.377,1056.55C193.377,1037.42 193.377,1015.58 193.377,996.454Z" style="fill:rgb(136,136,136);"/>
            </g>
            <g transform="matrix(0.153274,0,0,0.153274,335.307,393.527)">
                <g transform="matrix(217.318,0,0,217.318,154.069,457.049)">
                    <path d="M0.517,-0.642L0.424,-0.587C0.407,-0.617 0.391,-0.636 0.375,-0.646C0.359,-0.656 0.338,-0.661 0.312,-0.661C0.28,-0.661 0.254,-0.652 0.233,-0.634C0.213,-0.617 0.202,-0.595 0.202,-0.568C0.202,-0.531 0.229,-0.501 0.284,-0.479L0.359,-0.448C0.421,-0.424 0.465,-0.393 0.494,-0.358C0.522,-0.322 0.536,-0.278 0.536,-0.227C0.536,-0.157 0.513,-0.1 0.467,-0.055C0.42,-0.009 0.362,0.014 0.293,0.014C0.228,0.014 0.174,-0.006 0.131,-0.044C0.089,-0.083 0.063,-0.138 0.053,-0.208L0.168,-0.233C0.173,-0.189 0.182,-0.159 0.195,-0.142C0.219,-0.109 0.253,-0.093 0.298,-0.093C0.333,-0.093 0.363,-0.105 0.386,-0.128C0.41,-0.152 0.421,-0.182 0.421,-0.219C0.421,-0.233 0.419,-0.247 0.415,-0.259C0.411,-0.271 0.405,-0.282 0.396,-0.293C0.388,-0.303 0.376,-0.313 0.363,-0.322C0.349,-0.33 0.333,-0.339 0.314,-0.347L0.241,-0.377C0.138,-0.421 0.086,-0.485 0.086,-0.569C0.086,-0.625 0.108,-0.673 0.151,-0.711C0.195,-0.749 0.249,-0.769 0.313,-0.769C0.4,-0.769 0.468,-0.726 0.517,-0.642Z" style="fill:rgb(234,230,227);fill-rule:nonzero;"/>
                </g>
            </g>
            <g transform="matrix(1.49774,0,0,1.49774,-332.402,-348.936)">
                <g transform="matrix(1,0,0,1,3.0829,4.40549)">
                    <g transform="matrix(3.9971,0,0,3.9971,58.2063,-8.27849)">
                        <circle cx="53.5" cy="128.5" r="2.5" style="fill:rgb(68,68,68);"/>
                    </g>
                    <g transform="matrix(1,0,0,1,-2.66876,0)">
                        <g transform="matrix(3.9971,0,0,3.9971,76.2418,-3.93103)">
                            <g transform="matrix(6.25,0,0,6.25,47.7946,129.034)">
                                <rect x="0.056" y="-0.328" width="0.27" height="0.137" style="fill:rgb(234,230,227);fill-rule:nonzero;"/>
                            </g>
                        </g>
                        <g transform="matrix(3.9971,0,0,3.9971,81.5793,-3.93103)">
                            <g transform="matrix(6.25,0,0,6.25,47.7946,129.034)">
                                <rect x="0.056" y="-0.328" width="0.27" height="0.137" style="fill:rgb(234,230,227);fill-rule:nonzero;"/>
                            </g>
                        </g>
                    </g>
                </g>
                <g transform="matrix(1,0,0,1,-7.59212,4.40549)">
                    <g transform="matrix(3.9971,0,0,3.9971,135.742,-8.27849)">
                        <circle cx="53.5" cy="128.5" r="2.5" style="fill:rgb(68,68,68);"/>
                    </g>
                    <g transform="matrix(3.9971,0,0,3.9971,151.259,-1.58898)">
                        <g transform="matrix(6.25,0,0,6.25,47.7946,129.034)">
                            <path d="M0.229,-0.103L0.229,-0.289L0.042,-0.289L0.042,-0.417L0.229,-0.417L0.229,-0.604L0.354,-0.604L0.354,-0.417L0.542,-0.417L0.542,-0.289L0.354,-0.289L0.354,-0.103L0.229,-0.103Z" style="fill:rgb(234,230,227);fill-rule:nonzero;"/>
                        </g>
                    </g>
                </g>
            </g>
            <g transform="matrix(-8.05968,9.87026e-16,-4.89503e-16,-3.9971,424.712,1078.2)">
                <path d="M19.476,157.105L51.476,157.105" style="fill:none;stroke:rgb(136,136,136);stroke-width:0.52px;"/>
            </g>
        </g>
        <g transform="matrix(1,0,0,1,-3.9971,631.542)">
            <g transform="matrix(7.57526e-17,-1.23713,1.16032,7.10492e-17,-751.763,632.081)">
                <path d="M193.377,996.454C193.377,983.338 188.49,970.759 179.791,961.485C171.093,952.21 159.295,947 146.993,947C146.991,947 146.988,947 146.986,947C134.684,947 122.886,952.21 114.188,961.485C105.489,970.759 100.602,983.338 100.602,996.454C100.602,1015.58 100.602,1037.42 100.602,1056.55C100.602,1069.66 105.489,1082.24 114.188,1091.52C122.886,1100.79 134.684,1106 146.986,1106C146.988,1106 146.991,1106 146.993,1106C159.295,1106 171.093,1100.79 179.791,1091.52C188.49,1082.24 193.377,1069.66 193.377,1056.55C193.377,1037.42 193.377,1015.58 193.377,996.454Z" style="fill:rgb(136,136,136);"/>
            </g>
            <g transform="matrix(0.153274,0,0,0.153274,335.307,393.527)">
                <g transform="matrix(217.318,0,0,217.318,154.069,457.049)">
                    <path d="M0.346,-0.321L0.579,-0L0.44,-0L0.225,-0.309L0.204,-0.309L0.204,-0L0.09,-0L0.09,-0.754L0.224,-0.754C0.323,-0.754 0.395,-0.735 0.439,-0.698C0.488,-0.656 0.513,-0.601 0.513,-0.533C0.513,-0.479 0.497,-0.433 0.467,-0.395C0.436,-0.357 0.396,-0.332 0.346,-0.321ZM0.204,-0.408L0.24,-0.408C0.348,-0.408 0.402,-0.449 0.402,-0.531C0.402,-0.608 0.349,-0.647 0.245,-0.647L0.204,-0.647L0.204,-0.408Z" style="fill:rgb(234,230,227);fill-rule:nonzero;"/>
                </g>
            </g>
            <g transform="matrix(1.49774,0,0,1.49774,-332.402,-348.936)">
                <g transform="matrix(1,0,0,1,3.0829,4.40549)">
                    <g transform="matrix(3.9971,0,0,3.9971,58.2063,-8.27849)">
                        <circle cx="53.5" cy="128.5" r="2.5" style="fill:rgb(68,68,68);"/>
                    </g>
                    <g transform="matrix(1,0,0,1,-2.66876,0)">
                        <g transform="matrix(3.9971,0,0,3.9971,76.2418,-3.93103)">
                            <g transform="matrix(6.25,0,0,6.25,47.7946,129.034)">
                                <rect x="0.056" y="-0.328" width="0.27" height="0.137" style="fill:rgb(234,230,227);fill-rule:nonzero;"/>
                            </g>
                        </g>
                        <g transform="matrix(3.9971,0,0,3.9971,81.5793,-3.93103)">
                            <g transform="matrix(6.25,0,0,6.25,47.7946,129.034)">
                                <rect x="0.056" y="-0.328" width="0.27" height="0.137" style="fill:rgb(234,230,227);fill-rule:nonzero;"/>
                            </g>
                        </g>
                    </g>
                </g>
                <g transform="matrix(1,0,0,1,-7.59212,4.40549)">
                    <g transform="matrix(3.9971,0,0,3.9971,135.742,-8.27849)">
                        <circle cx="53.5" cy="128.5" r="2.5" style="fill:rgb(68,68,68);"/>
                    </g>
                    <g transform="matrix(3.9971,0,0,3.9971,151.259,-1.58898)">
                        <g transform="matrix(6.25,0,0,6.25,47.7946,129.034)">
                            <path d="M0.229,-0.103L0.229,-0.289L0.042,-0.289L0.042,-0.417L0.229,-0.417L0.229,-0.604L0.354,-0.604L0.354,-0.417L0.542,-0.417L0.542,-0.289L0.354,-0.289L0.354,-0.103L0.229,-0.103Z" style="fill:rgb(234,230,227);fill-rule:nonzero;"/>
                        </g>
                    </g>
                </g>
            </g>
            <g transform="matrix(-8.05968,9.87026e-16,-4.89503e-16,-3.9971,424.712,1078.2)">
                <path d="M19.476,157.105L51.476,157.105" style="fill:none;stroke:rgb(136,136,136);stroke-width:0.52px;"/>
            </g>
        </g>
        <g transform="matrix(1,0,0,1,-83.603,239.913)">
            <g transform="matrix(1,0,0,1,9.98059,0)">
                <g transform="matrix(1.23713,0,0,1,-23.8563,29)">
                    <path d="M193.377,1004.38C193.377,989.164 188.49,974.568 179.791,963.807C171.093,953.046 159.295,947 146.993,947C146.991,947 146.988,947 146.986,947C134.684,947 122.886,953.046 114.188,963.807C105.489,974.568 100.602,989.164 100.602,1004.38C100.602,1018.78 100.602,1034.22 100.602,1048.62C100.602,1063.84 105.489,1078.43 114.188,1089.19C122.886,1099.95 134.684,1106 146.986,1106C146.988,1106 146.991,1106 146.993,1106C159.295,1106 171.093,1099.95 179.791,1089.19C188.49,1078.43 193.377,1063.84 193.377,1048.62C193.377,1034.22 193.377,1018.78 193.377,1004.38Z" style="fill:rgb(136,136,136);"/>
                </g>
                <g transform="matrix(0.174645,0,0,0.174645,103.282,886.994)">
                    <g transform="matrix(190.725,0,0,190.725,103.823,744.432)">
                        <path d="M0.506,-0.647L0.204,-0.647L0.204,-0.466L0.498,-0.466L0.498,-0.359L0.204,-0.359L0.204,-0.107L0.506,-0.107L0.506,-0L0.09,-0L0.09,-0.754L0.506,-0.754L0.506,-0.647Z" style="fill:rgb(234,230,227);fill-rule:nonzero;"/>
                    </g>
                    <g transform="matrix(190.725,0,0,190.725,211.665,744.432)">
                        <path d="M0.09,-0L0.09,-0.805L0.64,-0.23L0.64,-0.754L0.754,-0.754L0.754,0.046L0.204,-0.528L0.204,-0L0.09,-0Z" style="fill:rgb(234,230,227);fill-rule:nonzero;"/>
                    </g>
                    <g transform="matrix(190.725,0,0,190.725,372.682,744.432)">
                        <path d="M0.128,-0.754L0.337,-0.231L0.548,-0.754L0.673,-0.754L0.334,0.057L0.004,-0.754L0.128,-0.754Z" style="fill:rgb(234,230,227);fill-rule:nonzero;"/>
                    </g>
                </g>
            </g>
            <g transform="matrix(1,0,0,1,-0.0294449,0)">
                <g transform="matrix(1.23713,0,0,1,139.584,29)">
                    <path d="M193.377,1004.38C193.377,989.164 188.49,974.568 179.791,963.807C171.093,953.046 159.295,947 146.993,947C146.991,947 146.988,947 146.986,947C134.684,947 122.886,953.046 114.188,963.807C105.489,974.568 100.602,989.164 100.602,1004.38C100.602,1018.78 100.602,1034.22 100.602,1048.62C100.602,1063.84 105.489,1078.43 114.188,1089.19C122.886,1099.95 134.684,1106 146.986,1106C146.988,1106 146.991,1106 146.993,1106C159.295,1106 171.093,1099.95 179.791,1089.19C188.49,1078.43 193.377,1063.84 193.377,1048.62C193.377,1034.22 193.377,1018.78 193.377,1004.38Z" style="fill:rgb(136,136,136);"/>
                </g>
                <g transform="matrix(0.174645,0,0,0.174645,264.169,886.994)">
                    <g transform="matrix(190.725,0,0,190.725,103.823,744.432)">
                        <path d="M0.053,-0.38C0.053,-0.486 0.092,-0.578 0.169,-0.654C0.247,-0.73 0.34,-0.768 0.449,-0.768C0.556,-0.768 0.648,-0.73 0.725,-0.653C0.802,-0.576 0.841,-0.484 0.841,-0.376C0.841,-0.268 0.802,-0.176 0.725,-0.1C0.647,-0.024 0.553,0.014 0.443,0.014C0.346,0.014 0.258,-0.02 0.181,-0.087C0.095,-0.162 0.053,-0.26 0.053,-0.38ZM0.167,-0.379C0.167,-0.296 0.195,-0.227 0.251,-0.173C0.307,-0.12 0.371,-0.093 0.444,-0.093C0.523,-0.093 0.59,-0.12 0.645,-0.175C0.699,-0.23 0.726,-0.298 0.726,-0.377C0.726,-0.457 0.699,-0.525 0.646,-0.579C0.592,-0.634 0.526,-0.661 0.447,-0.661C0.369,-0.661 0.303,-0.634 0.249,-0.579C0.194,-0.525 0.167,-0.458 0.167,-0.379Z" style="fill:rgb(234,230,227);fill-rule:nonzero;"/>
                    </g>
                    <g transform="matrix(190.725,0,0,190.725,274.246,744.432)">
                        <path d="M0.204,-0.754L0.204,-0.3C0.204,-0.235 0.215,-0.188 0.236,-0.158C0.267,-0.114 0.312,-0.093 0.369,-0.093C0.427,-0.093 0.471,-0.114 0.503,-0.158C0.524,-0.187 0.535,-0.234 0.535,-0.3L0.535,-0.754L0.648,-0.754L0.648,-0.269C0.648,-0.189 0.624,-0.124 0.574,-0.072C0.519,-0.015 0.45,0.014 0.369,0.014C0.288,0.014 0.22,-0.015 0.165,-0.072C0.115,-0.124 0.09,-0.189 0.09,-0.269L0.09,-0.754L0.204,-0.754Z" style="fill:rgb(234,230,227);fill-rule:nonzero;"/>
                    </g>
                    <g transform="matrix(190.725,0,0,190.725,415.148,744.432)">
                        <path d="M0.298,-0.647L0.298,-0L0.185,-0L0.185,-0.647L0.011,-0.647L0.011,-0.754L0.471,-0.754L0.471,-0.647L0.298,-0.647Z" style="fill:rgb(234,230,227);fill-rule:nonzero;"/>
                    </g>
                </g>
            </g>
            <g transform="matrix(1,0,0,1,149.829,2.27374e-13)">
                <g transform="matrix(1.23713,0,0,1,139.584,29)">
                    <path d="M193.377,1004.38C193.377,989.164 188.49,974.568 179.791,963.807C171.093,953.046 159.295,947 146.993,947C146.991,947 146.988,947 146.986,947C134.684,947 122.886,953.046 114.188,963.807C105.489,974.568 100.602,989.164 100.602,1004.38C100.602,1018.78 100.602,1034.22 100.602,1048.62C100.602,1063.84 105.489,1078.43 114.188,1089.19C122.886,1099.95 134.684,1106 146.986,1106C146.988,1106 146.991,1106 146.993,1106C159.295,1106 171.093,1099.95 179.791,1089.19C188.49,1078.43 193.377,1063.84 193.377,1048.62C193.377,1034.22 193.377,1018.78 193.377,1004.38Z" style="fill:rgb(136,136,136);"/>
                </g>
                <g transform="matrix(0.174645,0,0,0.174645,267.102,886.994)">
                    <g transform="matrix(190.725,0,0,190.725,103.823,744.432)">
                        <path d="M0.506,-0.647L0.204,-0.647L0.204,-0.466L0.498,-0.466L0.498,-0.359L0.204,-0.359L0.204,-0.107L0.506,-0.107L0.506,-0L0.09,-0L0.09,-0.754L0.506,-0.754L0.506,-0.647Z" style="fill:rgb(234,230,227);fill-rule:nonzero;"/>
                    </g>
                    <g transform="matrix(190.725,0,0,190.725,211.665,744.432)">
                        <path d="M0.09,-0L0.09,-0.805L0.64,-0.23L0.64,-0.754L0.754,-0.754L0.754,0.046L0.204,-0.528L0.204,-0L0.09,-0Z" style="fill:rgb(234,230,227);fill-rule:nonzero;"/>
                    </g>
                    <g transform="matrix(190.725,0,0,190.725,372.682,744.432)">
                        <path d="M0.09,-0L0.09,-0.754L0.249,-0.754C0.324,-0.754 0.384,-0.746 0.428,-0.731C0.475,-0.717 0.518,-0.692 0.557,-0.657C0.634,-0.586 0.673,-0.493 0.673,-0.377C0.673,-0.261 0.633,-0.167 0.552,-0.096C0.511,-0.06 0.468,-0.035 0.424,-0.021C0.382,-0.007 0.323,-0 0.247,-0L0.09,-0ZM0.204,-0.107L0.255,-0.107C0.306,-0.107 0.349,-0.112 0.383,-0.123C0.417,-0.134 0.447,-0.153 0.475,-0.177C0.531,-0.228 0.559,-0.295 0.559,-0.377C0.559,-0.46 0.531,-0.527 0.476,-0.578C0.426,-0.624 0.352,-0.647 0.255,-0.647L0.204,-0.647L0.204,-0.107Z" style="fill:rgb(234,230,227);fill-rule:nonzero;"/>
                    </g>
                </g>
            </g>
        </g>
        <g transform="matrix(3.9971,0,0,3.9971,-69.3254,-11.9913)">
            <circle cx="63.33" cy="79.888" r="13.998" style="fill:none;stroke:rgb(136,136,136);stroke-width:0.83px;"/>
        </g>
    </g>
</svg>
